<?xml version="1.0" encoding="UTF-8" standalone="no"?>
<?xml-stylesheet href="tess.css" type="text/css"?>
<svg id="hex" viewBox="0 0 400 400" xmlns="http://www.w3.org/2000/svg" xmlns:xlink="http://www.w3.org/1999/xlink">
	<script type="text/javascript" xlink:href="https://cdn.jsdelivr.net/npm/interactjs/dist/interact.min.js"/>
	<!-- <script type="text/javascript" xlink:href="interact.min.js"/> -->
	<script type="text/javascript" xlink:href="tess.js"/>
	<!-- <script type="text/javascript">
		document.addEventListener('DOMContentLoaded', tess)
	</script> -->
	<defs>
		<circle id="point-handle"
			r="2" x="0" y="0"
			stroke-width="2"
			fill="#f00"
			fill-opacity="0.4"
			stroke="#ddd"/>
	</defs>


	<g>
		<path d="M 100.0,100.0 100,85.0 100.0,70.0" id="path0" style="fill:none;stroke:#000000;stroke-width:1px"/>
		<path d="M 74.01923788646684,55.0 61.02885682970026,62.5 48.03847577293369,70.0" id="path1" style="fill:none;stroke:#000000;stroke-width:1px"/>
		<path d="M 48.03847577293369,100.0 61.02885682970026,107.5 74.01923788646684,115.0" id="path2" style="fill:none;stroke:#000000;stroke-width:1px"/>

		<use transform=" rotate(0 -237.74990747593108 -35.0) translate(-311.7691453623979,-90.0)" xlink:href="#path1"/>
		<use transform=" rotate(120 -237.74990747593108 -35.0) translate(-311.7691453623979,-90.0)" xlink:href="#path1"/>
		<use transform=" rotate(240 -237.74990747593108 -35.0) translate(-311.7691453623979,-90.0)" xlink:href="#path1"/>
		<use transform=" rotate(0 -185.78838324886476 -35.0) translate(-233.82685902179844,-135.0)" xlink:href="#path2"/>
		<use transform=" rotate(120 -185.78838324886476 -35.0) translate(-233.82685902179844,-135.0)" xlink:href="#path2"/>
		<use transform=" rotate(240 -185.78838324886476 -35.0) translate(-233.82685902179844,-135.0)" xlink:href="#path2"/>
		<use transform=" rotate(0 -133.82685902179844 -35.0) translate(-233.82685902179844,-135.0)" xlink:href="#path0"/>
		<use transform=" rotate(120 -133.82685902179844 -35.0) translate(-233.82685902179844,-135.0)" xlink:href="#path0"/>
		<use transform=" rotate(240 -133.82685902179844 -35.0) translate(-233.82685902179844,-135.0)" xlink:href="#path0"/>
		<use transform=" rotate(0 -81.86533479473212 -35.0) translate(-155.88457268119896,-90.0)" xlink:href="#path1"/>
		<use transform=" rotate(120 -81.86533479473212 -35.0) translate(-155.88457268119896,-90.0)" xlink:href="#path1"/>
		<use transform=" rotate(240 -81.86533479473212 -35.0) translate(-155.88457268119896,-90.0)" xlink:href="#path1"/>
		<use transform=" rotate(0 -29.903810567665815 -35.0) translate(-77.94228634059951,-135.0)" xlink:href="#path2"/>
		<use transform=" rotate(120 -29.903810567665815 -35.0) translate(-77.94228634059951,-135.0)" xlink:href="#path2"/>
		<use transform=" rotate(240 -29.903810567665815 -35.0) translate(-77.94228634059951,-135.0)" xlink:href="#path2"/>
		<use transform=" rotate(0 22.05771365940052 -35.0) translate(-77.94228634059948,-135.0)" xlink:href="#path0"/>
		<use transform=" rotate(120 22.05771365940052 -35.0) translate(-77.94228634059948,-135.0)" xlink:href="#path0"/>
		<use transform=" rotate(240 22.05771365940052 -35.0) translate(-77.94228634059948,-135.0)" xlink:href="#path0"/>
		<use transform=" rotate(0 74.01923788646684 -35.0) translate(0.0,-90.0)" xlink:href="#path1"/>
		<use transform=" rotate(120 74.01923788646684 -35.0) translate(0.0,-90.0)" xlink:href="#path1"/>
		<use transform=" rotate(240 74.01923788646684 -35.0) translate(0.0,-90.0)" xlink:href="#path1"/>
		<use transform=" rotate(0 125.98076211353315 -35.0) translate(77.94228634059945,-135.0)" xlink:href="#path2"/>
		<use transform=" rotate(120 125.98076211353315 -35.0) translate(77.94228634059945,-135.0)" xlink:href="#path2"/>
		<use transform=" rotate(240 125.98076211353315 -35.0) translate(77.94228634059945,-135.0)" xlink:href="#path2"/>
		<use transform=" rotate(0 177.94228634059948 -35.0) translate(77.94228634059948,-135.0)" xlink:href="#path0"/>
		<use transform=" rotate(120 177.94228634059948 -35.0) translate(77.94228634059948,-135.0)" xlink:href="#path0"/>
		<use transform=" rotate(240 177.94228634059948 -35.0) translate(77.94228634059948,-135.0)" xlink:href="#path0"/>
		<use transform=" rotate(0 229.9038105676658 -35.0) translate(155.88457268119896,-90.0)" xlink:href="#path1"/>
		<use transform=" rotate(120 229.9038105676658 -35.0) translate(155.88457268119896,-90.0)" xlink:href="#path1"/>
		<use transform=" rotate(240 229.9038105676658 -35.0) translate(155.88457268119896,-90.0)" xlink:href="#path1"/>
		<use transform=" rotate(0 281.8653347947321 -35.0) translate(233.82685902179844,-135.0)" xlink:href="#path2"/>
		<use transform=" rotate(120 281.8653347947321 -35.0) translate(233.82685902179844,-135.0)" xlink:href="#path2"/>
		<use transform=" rotate(240 281.8653347947321 -35.0) translate(233.82685902179844,-135.0)" xlink:href="#path2"/>
		<use transform=" rotate(0 333.82685902179844 -35.0) translate(233.82685902179844,-135.0)" xlink:href="#path0"/>
		<use transform=" rotate(120 333.82685902179844 -35.0) translate(233.82685902179844,-135.0)" xlink:href="#path0"/>
		<use transform=" rotate(240 333.82685902179844 -35.0) translate(233.82685902179844,-135.0)" xlink:href="#path0"/>
		<use transform=" rotate(0 385.78838324886476 -35.0) translate(311.7691453623979,-90.0)" xlink:href="#path1"/>
		<use transform=" rotate(120 385.78838324886476 -35.0) translate(311.7691453623979,-90.0)" xlink:href="#path1"/>
		<use transform=" rotate(240 385.78838324886476 -35.0) translate(311.7691453623979,-90.0)" xlink:href="#path1"/>
		<use transform=" rotate(0 437.7499074759311 -35.0) translate(389.7114317029974,-135.0)" xlink:href="#path2"/>
		<use transform=" rotate(120 437.7499074759311 -35.0) translate(389.7114317029974,-135.0)" xlink:href="#path2"/>
		<use transform=" rotate(240 437.7499074759311 -35.0) translate(389.7114317029974,-135.0)" xlink:href="#path2"/>
		<use transform=" rotate(0 489.7114317029974 -35.0) translate(389.7114317029974,-135.0)" xlink:href="#path0"/>
		<use transform=" rotate(120 489.7114317029974 -35.0) translate(389.7114317029974,-135.0)" xlink:href="#path0"/>
		<use transform=" rotate(240 489.7114317029974 -35.0) translate(389.7114317029974,-135.0)" xlink:href="#path0"/>
		<use transform=" rotate(0 541.6729559300637 -35.0) translate(467.6537180435969,-90.0)" xlink:href="#path1"/>
		<use transform=" rotate(120 541.6729559300637 -35.0) translate(467.6537180435969,-90.0)" xlink:href="#path1"/>
		<use transform=" rotate(240 541.6729559300637 -35.0) translate(467.6537180435969,-90.0)" xlink:href="#path1"/>
		<use transform=" rotate(0 593.63448015713 -35.0) translate(545.5960043841964,-135.0)" xlink:href="#path2"/>
		<use transform=" rotate(120 593.63448015713 -35.0) translate(545.5960043841964,-135.0)" xlink:href="#path2"/>
		<use transform=" rotate(240 593.63448015713 -35.0) translate(545.5960043841964,-135.0)" xlink:href="#path2"/>
		<use transform=" rotate(0 -367.6537180435969 10.0) translate(-467.6537180435969,-90.0)" xlink:href="#path0"/>
		<use transform=" rotate(120 -367.6537180435969 10.0) translate(-467.6537180435969,-90.0)" xlink:href="#path0"/>
		<use transform=" rotate(240 -367.6537180435969 10.0) translate(-467.6537180435969,-90.0)" xlink:href="#path0"/>
		<use transform=" rotate(0 -315.69219381653056 10.0) translate(-389.7114317029974,-45.0)" xlink:href="#path1"/>
		<use transform=" rotate(120 -315.69219381653056 10.0) translate(-389.7114317029974,-45.0)" xlink:href="#path1"/>
		<use transform=" rotate(240 -315.69219381653056 10.0) translate(-389.7114317029974,-45.0)" xlink:href="#path1"/>
		<use transform=" rotate(0 -263.73066958946424 10.0) translate(-311.7691453623979,-90.0)" xlink:href="#path2"/>
		<use transform=" rotate(120 -263.73066958946424 10.0) translate(-311.7691453623979,-90.0)" xlink:href="#path2"/>
		<use transform=" rotate(240 -263.73066958946424 10.0) translate(-311.7691453623979,-90.0)" xlink:href="#path2"/>
		<use transform=" rotate(0 -211.76914536239792 10.0) translate(-311.7691453623979,-90.0)" xlink:href="#path0"/>
		<use transform=" rotate(120 -211.76914536239792 10.0) translate(-311.7691453623979,-90.0)" xlink:href="#path0"/>
		<use transform=" rotate(240 -211.76914536239792 10.0) translate(-311.7691453623979,-90.0)" xlink:href="#path0"/>
		<use transform=" rotate(0 -159.8076211353316 10.0) translate(-233.82685902179844,-45.0)" xlink:href="#path1"/>
		<use transform=" rotate(120 -159.8076211353316 10.0) translate(-233.82685902179844,-45.0)" xlink:href="#path1"/>
		<use transform=" rotate(240 -159.8076211353316 10.0) translate(-233.82685902179844,-45.0)" xlink:href="#path1"/>
		<use transform=" rotate(0 -107.8460969082653 10.0) translate(-155.884572681199,-90.0)" xlink:href="#path2"/>
		<use transform=" rotate(120 -107.8460969082653 10.0) translate(-155.884572681199,-90.0)" xlink:href="#path2"/>
		<use transform=" rotate(240 -107.8460969082653 10.0) translate(-155.884572681199,-90.0)" xlink:href="#path2"/>
		<use transform=" rotate(0 -55.88457268119896 10.0) translate(-155.88457268119896,-90.0)" xlink:href="#path0"/>
		<use transform=" rotate(120 -55.88457268119896 10.0) translate(-155.88457268119896,-90.0)" xlink:href="#path0"/>
		<use transform=" rotate(240 -55.88457268119896 10.0) translate(-155.88457268119896,-90.0)" xlink:href="#path0"/>
		<use transform=" rotate(0 -3.9230484541326476 10.0) translate(-77.94228634059948,-45.0)" xlink:href="#path1"/>
		<use transform=" rotate(120 -3.9230484541326476 10.0) translate(-77.94228634059948,-45.0)" xlink:href="#path1"/>
		<use transform=" rotate(240 -3.9230484541326476 10.0) translate(-77.94228634059948,-45.0)" xlink:href="#path1"/>
		<use transform=" rotate(0 48.038475772933666 10.0) translate(-2.1316282072803006e-14,-90.0)" xlink:href="#path2"/>
		<use transform=" rotate(120 48.038475772933666 10.0) translate(-2.1316282072803006e-14,-90.0)" xlink:href="#path2"/>
		<use transform=" rotate(240 48.038475772933666 10.0) translate(-2.1316282072803006e-14,-90.0)" xlink:href="#path2"/>
		<use transform=" rotate(0 100.0 10.0) translate(0.0,-90.0)" xlink:href="#path0"/>
		<use transform=" rotate(120 100.0 10.0) translate(0.0,-90.0)" xlink:href="#path0"/>
		<use transform=" rotate(240 100.0 10.0) translate(0.0,-90.0)" xlink:href="#path0"/>
		<use transform=" rotate(0 151.96152422706632 10.0) translate(77.94228634059948,-45.0)" xlink:href="#path1"/>
		<use transform=" rotate(120 151.96152422706632 10.0) translate(77.94228634059948,-45.0)" xlink:href="#path1"/>
		<use transform=" rotate(240 151.96152422706632 10.0) translate(77.94228634059948,-45.0)" xlink:href="#path1"/>
		<use transform=" rotate(0 203.92304845413264 10.0) translate(155.88457268119896,-90.0)" xlink:href="#path2"/>
		<use transform=" rotate(120 203.92304845413264 10.0) translate(155.88457268119896,-90.0)" xlink:href="#path2"/>
		<use transform=" rotate(240 203.92304845413264 10.0) translate(155.88457268119896,-90.0)" xlink:href="#path2"/>
		<use transform=" rotate(0 255.88457268119896 10.0) translate(155.88457268119896,-90.0)" xlink:href="#path0"/>
		<use transform=" rotate(120 255.88457268119896 10.0) translate(155.88457268119896,-90.0)" xlink:href="#path0"/>
		<use transform=" rotate(240 255.88457268119896 10.0) translate(155.88457268119896,-90.0)" xlink:href="#path0"/>
		<use transform=" rotate(0 307.8460969082653 10.0) translate(233.82685902179844,-45.0)" xlink:href="#path1"/>
		<use transform=" rotate(120 307.8460969082653 10.0) translate(233.82685902179844,-45.0)" xlink:href="#path1"/>
		<use transform=" rotate(240 307.8460969082653 10.0) translate(233.82685902179844,-45.0)" xlink:href="#path1"/>
		<use transform=" rotate(0 359.8076211353316 10.0) translate(311.7691453623979,-90.0)" xlink:href="#path2"/>
		<use transform=" rotate(120 359.8076211353316 10.0) translate(311.7691453623979,-90.0)" xlink:href="#path2"/>
		<use transform=" rotate(240 359.8076211353316 10.0) translate(311.7691453623979,-90.0)" xlink:href="#path2"/>
		<use transform=" rotate(0 411.7691453623979 10.0) translate(311.7691453623979,-90.0)" xlink:href="#path0"/>
		<use transform=" rotate(120 411.7691453623979 10.0) translate(311.7691453623979,-90.0)" xlink:href="#path0"/>
		<use transform=" rotate(240 411.7691453623979 10.0) translate(311.7691453623979,-90.0)" xlink:href="#path0"/>
		<use transform=" rotate(0 463.73066958946424 10.0) translate(389.7114317029974,-45.0)" xlink:href="#path1"/>
		<use transform=" rotate(120 463.73066958946424 10.0) translate(389.7114317029974,-45.0)" xlink:href="#path1"/>
		<use transform=" rotate(240 463.73066958946424 10.0) translate(389.7114317029974,-45.0)" xlink:href="#path1"/>
		<use transform=" rotate(0 515.6921938165306 10.0) translate(467.6537180435969,-90.0)" xlink:href="#path2"/>
		<use transform=" rotate(120 515.6921938165306 10.0) translate(467.6537180435969,-90.0)" xlink:href="#path2"/>
		<use transform=" rotate(240 515.6921938165306 10.0) translate(467.6537180435969,-90.0)" xlink:href="#path2"/>
		<use transform=" rotate(0 -289.7114317029974 55.0) translate(-389.7114317029974,-45.0)" xlink:href="#path0"/>
		<use transform=" rotate(120 -289.7114317029974 55.0) translate(-389.7114317029974,-45.0)" xlink:href="#path0"/>
		<use transform=" rotate(240 -289.7114317029974 55.0) translate(-389.7114317029974,-45.0)" xlink:href="#path0"/>
		<use transform=" rotate(0 -237.74990747593108 55.0) translate(-311.7691453623979,0.0)" xlink:href="#path1"/>
		<use transform=" rotate(120 -237.74990747593108 55.0) translate(-311.7691453623979,0.0)" xlink:href="#path1"/>
		<use transform=" rotate(240 -237.74990747593108 55.0) translate(-311.7691453623979,0.0)" xlink:href="#path1"/>
		<use transform=" rotate(0 -185.78838324886476 55.0) translate(-233.82685902179844,-45.0)" xlink:href="#path2"/>
		<use transform=" rotate(120 -185.78838324886476 55.0) translate(-233.82685902179844,-45.0)" xlink:href="#path2"/>
		<use transform=" rotate(240 -185.78838324886476 55.0) translate(-233.82685902179844,-45.0)" xlink:href="#path2"/>
		<use transform=" rotate(0 -133.82685902179844 55.0) translate(-233.82685902179844,-45.0)" xlink:href="#path0"/>
		<use transform=" rotate(120 -133.82685902179844 55.0) translate(-233.82685902179844,-45.0)" xlink:href="#path0"/>
		<use transform=" rotate(240 -133.82685902179844 55.0) translate(-233.82685902179844,-45.0)" xlink:href="#path0"/>
		<use transform=" rotate(0 -81.86533479473212 55.0) translate(-155.88457268119896,0.0)" xlink:href="#path1"/>
		<use transform=" rotate(120 -81.86533479473212 55.0) translate(-155.88457268119896,0.0)" xlink:href="#path1"/>
		<use transform=" rotate(240 -81.86533479473212 55.0) translate(-155.88457268119896,0.0)" xlink:href="#path1"/>
		<use transform=" rotate(0 -29.903810567665815 55.0) translate(-77.94228634059951,-45.0)" xlink:href="#path2"/>
		<use transform=" rotate(120 -29.903810567665815 55.0) translate(-77.94228634059951,-45.0)" xlink:href="#path2"/>
		<use transform=" rotate(240 -29.903810567665815 55.0) translate(-77.94228634059951,-45.0)" xlink:href="#path2"/>
		<use transform=" rotate(0 22.05771365940052 55.0) translate(-77.94228634059948,-45.0)" xlink:href="#path0"/>
		<use transform=" rotate(120 22.05771365940052 55.0) translate(-77.94228634059948,-45.0)" xlink:href="#path0"/>
		<use transform=" rotate(240 22.05771365940052 55.0) translate(-77.94228634059948,-45.0)" xlink:href="#path0"/>
		<use transform=" rotate(0 74.01923788646684 55.0) translate(0.0,0.0)" xlink:href="#path1"/>
		<use transform=" rotate(120 74.01923788646684 55.0) translate(0.0,0.0)" xlink:href="#path1"/>
		<use transform=" rotate(240 74.01923788646684 55.0) translate(0.0,0.0)" xlink:href="#path1"/>
		<use transform=" rotate(0 125.98076211353315 55.0) translate(77.94228634059945,-45.0)" xlink:href="#path2"/>
		<use transform=" rotate(120 125.98076211353315 55.0) translate(77.94228634059945,-45.0)" xlink:href="#path2"/>
		<use transform=" rotate(240 125.98076211353315 55.0) translate(77.94228634059945,-45.0)" xlink:href="#path2"/>
		<use transform=" rotate(0 177.94228634059948 55.0) translate(77.94228634059948,-45.0)" xlink:href="#path0"/>
		<use transform=" rotate(120 177.94228634059948 55.0) translate(77.94228634059948,-45.0)" xlink:href="#path0"/>
		<use transform=" rotate(240 177.94228634059948 55.0) translate(77.94228634059948,-45.0)" xlink:href="#path0"/>
		<use transform=" rotate(0 229.9038105676658 55.0) translate(155.88457268119896,0.0)" xlink:href="#path1"/>
		<use transform=" rotate(120 229.9038105676658 55.0) translate(155.88457268119896,0.0)" xlink:href="#path1"/>
		<use transform=" rotate(240 229.9038105676658 55.0) translate(155.88457268119896,0.0)" xlink:href="#path1"/>
		<use transform=" rotate(0 281.8653347947321 55.0) translate(233.82685902179844,-45.0)" xlink:href="#path2"/>
		<use transform=" rotate(120 281.8653347947321 55.0) translate(233.82685902179844,-45.0)" xlink:href="#path2"/>
		<use transform=" rotate(240 281.8653347947321 55.0) translate(233.82685902179844,-45.0)" xlink:href="#path2"/>
		<use transform=" rotate(0 333.82685902179844 55.0) translate(233.82685902179844,-45.0)" xlink:href="#path0"/>
		<use transform=" rotate(120 333.82685902179844 55.0) translate(233.82685902179844,-45.0)" xlink:href="#path0"/>
		<use transform=" rotate(240 333.82685902179844 55.0) translate(233.82685902179844,-45.0)" xlink:href="#path0"/>
		<use transform=" rotate(0 385.78838324886476 55.0) translate(311.7691453623979,0.0)" xlink:href="#path1"/>
		<use transform=" rotate(120 385.78838324886476 55.0) translate(311.7691453623979,0.0)" xlink:href="#path1"/>
		<use transform=" rotate(240 385.78838324886476 55.0) translate(311.7691453623979,0.0)" xlink:href="#path1"/>
		<use transform=" rotate(0 437.7499074759311 55.0) translate(389.7114317029974,-45.0)" xlink:href="#path2"/>
		<use transform=" rotate(120 437.7499074759311 55.0) translate(389.7114317029974,-45.0)" xlink:href="#path2"/>
		<use transform=" rotate(240 437.7499074759311 55.0) translate(389.7114317029974,-45.0)" xlink:href="#path2"/>
		<use transform=" rotate(0 489.7114317029974 55.0) translate(389.7114317029974,-45.0)" xlink:href="#path0"/>
		<use transform=" rotate(120 489.7114317029974 55.0) translate(389.7114317029974,-45.0)" xlink:href="#path0"/>
		<use transform=" rotate(240 489.7114317029974 55.0) translate(389.7114317029974,-45.0)" xlink:href="#path0"/>
		<use transform=" rotate(0 541.6729559300637 55.0) translate(467.6537180435969,0.0)" xlink:href="#path1"/>
		<use transform=" rotate(120 541.6729559300637 55.0) translate(467.6537180435969,0.0)" xlink:href="#path1"/>
		<use transform=" rotate(240 541.6729559300637 55.0) translate(467.6537180435969,0.0)" xlink:href="#path1"/>
		<use transform=" rotate(0 593.63448015713 55.0) translate(545.5960043841964,-45.0)" xlink:href="#path2"/>
		<use transform=" rotate(120 593.63448015713 55.0) translate(545.5960043841964,-45.0)" xlink:href="#path2"/>
		<use transform=" rotate(240 593.63448015713 55.0) translate(545.5960043841964,-45.0)" xlink:href="#path2"/>
		<use transform=" rotate(0 -367.6537180435969 100.0) translate(-467.6537180435969,0.0)" xlink:href="#path0"/>
		<use transform=" rotate(120 -367.6537180435969 100.0) translate(-467.6537180435969,0.0)" xlink:href="#path0"/>
		<use transform=" rotate(240 -367.6537180435969 100.0) translate(-467.6537180435969,0.0)" xlink:href="#path0"/>
		<use transform=" rotate(0 -315.69219381653056 100.0) translate(-389.7114317029974,45.0)" xlink:href="#path1"/>
		<use transform=" rotate(120 -315.69219381653056 100.0) translate(-389.7114317029974,45.0)" xlink:href="#path1"/>
		<use transform=" rotate(240 -315.69219381653056 100.0) translate(-389.7114317029974,45.0)" xlink:href="#path1"/>
		<use transform=" rotate(0 -263.73066958946424 100.0) translate(-311.7691453623979,0.0)" xlink:href="#path2"/>
		<use transform=" rotate(120 -263.73066958946424 100.0) translate(-311.7691453623979,0.0)" xlink:href="#path2"/>
		<use transform=" rotate(240 -263.73066958946424 100.0) translate(-311.7691453623979,0.0)" xlink:href="#path2"/>
		<use transform=" rotate(0 -211.76914536239792 100.0) translate(-311.7691453623979,0.0)" xlink:href="#path0"/>
		<use transform=" rotate(120 -211.76914536239792 100.0) translate(-311.7691453623979,0.0)" xlink:href="#path0"/>
		<use transform=" rotate(240 -211.76914536239792 100.0) translate(-311.7691453623979,0.0)" xlink:href="#path0"/>
		<use transform=" rotate(0 -159.8076211353316 100.0) translate(-233.82685902179844,45.0)" xlink:href="#path1"/>
		<use transform=" rotate(120 -159.8076211353316 100.0) translate(-233.82685902179844,45.0)" xlink:href="#path1"/>
		<use transform=" rotate(240 -159.8076211353316 100.0) translate(-233.82685902179844,45.0)" xlink:href="#path1"/>
		<use transform=" rotate(0 -107.8460969082653 100.0) translate(-155.884572681199,0.0)" xlink:href="#path2"/>
		<use transform=" rotate(120 -107.8460969082653 100.0) translate(-155.884572681199,0.0)" xlink:href="#path2"/>
		<use transform=" rotate(240 -107.8460969082653 100.0) translate(-155.884572681199,0.0)" xlink:href="#path2"/>
		<use transform=" rotate(0 -55.88457268119896 100.0) translate(-155.88457268119896,0.0)" xlink:href="#path0"/>
		<use transform=" rotate(120 -55.88457268119896 100.0) translate(-155.88457268119896,0.0)" xlink:href="#path0"/>
		<use transform=" rotate(240 -55.88457268119896 100.0) translate(-155.88457268119896,0.0)" xlink:href="#path0"/>
		<use transform=" rotate(0 -3.9230484541326476 100.0) translate(-77.94228634059948,45.0)" xlink:href="#path1"/>
		<use transform=" rotate(120 -3.9230484541326476 100.0) translate(-77.94228634059948,45.0)" xlink:href="#path1"/>
		<use transform=" rotate(240 -3.9230484541326476 100.0) translate(-77.94228634059948,45.0)" xlink:href="#path1"/>
		<use transform=" rotate(0 48.038475772933666 100.0) translate(-2.1316282072803006e-14,0.0)" xlink:href="#path2"/>
		<use transform=" rotate(120 48.038475772933666 100.0) translate(-2.1316282072803006e-14,0.0)" xlink:href="#path2"/>
		<use transform=" rotate(240 48.038475772933666 100.0) translate(-2.1316282072803006e-14,0.0)" xlink:href="#path2"/>
		<use transform=" rotate(0 100.0 100.0) translate(0.0,0.0)" xlink:href="#path0"/>
		<use transform=" rotate(120 100.0 100.0) translate(0.0,0.0)" xlink:href="#path0"/>
		<use transform=" rotate(240 100.0 100.0) translate(0.0,0.0)" xlink:href="#path0"/>
		<use transform=" rotate(0 151.96152422706632 100.0) translate(77.94228634059948,45.0)" xlink:href="#path1"/>
		<use transform=" rotate(120 151.96152422706632 100.0) translate(77.94228634059948,45.0)" xlink:href="#path1"/>
		<use transform=" rotate(240 151.96152422706632 100.0) translate(77.94228634059948,45.0)" xlink:href="#path1"/>
		<use transform=" rotate(0 203.92304845413264 100.0) translate(155.88457268119896,0.0)" xlink:href="#path2"/>
		<use transform=" rotate(120 203.92304845413264 100.0) translate(155.88457268119896,0.0)" xlink:href="#path2"/>
		<use transform=" rotate(240 203.92304845413264 100.0) translate(155.88457268119896,0.0)" xlink:href="#path2"/>
		<use transform=" rotate(0 255.88457268119896 100.0) translate(155.88457268119896,0.0)" xlink:href="#path0"/>
		<use transform=" rotate(120 255.88457268119896 100.0) translate(155.88457268119896,0.0)" xlink:href="#path0"/>
		<use transform=" rotate(240 255.88457268119896 100.0) translate(155.88457268119896,0.0)" xlink:href="#path0"/>
		<use transform=" rotate(0 307.8460969082653 100.0) translate(233.82685902179844,45.0)" xlink:href="#path1"/>
		<use transform=" rotate(120 307.8460969082653 100.0) translate(233.82685902179844,45.0)" xlink:href="#path1"/>
		<use transform=" rotate(240 307.8460969082653 100.0) translate(233.82685902179844,45.0)" xlink:href="#path1"/>
		<use transform=" rotate(0 359.8076211353316 100.0) translate(311.7691453623979,0.0)" xlink:href="#path2"/>
		<use transform=" rotate(120 359.8076211353316 100.0) translate(311.7691453623979,0.0)" xlink:href="#path2"/>
		<use transform=" rotate(240 359.8076211353316 100.0) translate(311.7691453623979,0.0)" xlink:href="#path2"/>
		<use transform=" rotate(0 411.7691453623979 100.0) translate(311.7691453623979,0.0)" xlink:href="#path0"/>
		<use transform=" rotate(120 411.7691453623979 100.0) translate(311.7691453623979,0.0)" xlink:href="#path0"/>
		<use transform=" rotate(240 411.7691453623979 100.0) translate(311.7691453623979,0.0)" xlink:href="#path0"/>
		<use transform=" rotate(0 463.73066958946424 100.0) translate(389.7114317029974,45.0)" xlink:href="#path1"/>
		<use transform=" rotate(120 463.73066958946424 100.0) translate(389.7114317029974,45.0)" xlink:href="#path1"/>
		<use transform=" rotate(240 463.73066958946424 100.0) translate(389.7114317029974,45.0)" xlink:href="#path1"/>
		<use transform=" rotate(0 515.6921938165306 100.0) translate(467.6537180435969,0.0)" xlink:href="#path2"/>
		<use transform=" rotate(120 515.6921938165306 100.0) translate(467.6537180435969,0.0)" xlink:href="#path2"/>
		<use transform=" rotate(240 515.6921938165306 100.0) translate(467.6537180435969,0.0)" xlink:href="#path2"/>
		<use transform=" rotate(0 -289.7114317029974 145.0) translate(-389.7114317029974,45.0)" xlink:href="#path0"/>
		<use transform=" rotate(120 -289.7114317029974 145.0) translate(-389.7114317029974,45.0)" xlink:href="#path0"/>
		<use transform=" rotate(240 -289.7114317029974 145.0) translate(-389.7114317029974,45.0)" xlink:href="#path0"/>
		<use transform=" rotate(0 -237.74990747593108 145.0) translate(-311.7691453623979,90.0)" xlink:href="#path1"/>
		<use transform=" rotate(120 -237.74990747593108 145.0) translate(-311.7691453623979,90.0)" xlink:href="#path1"/>
		<use transform=" rotate(240 -237.74990747593108 145.0) translate(-311.7691453623979,90.0)" xlink:href="#path1"/>
		<use transform=" rotate(0 -185.78838324886476 145.0) translate(-233.82685902179844,45.0)" xlink:href="#path2"/>
		<use transform=" rotate(120 -185.78838324886476 145.0) translate(-233.82685902179844,45.0)" xlink:href="#path2"/>
		<use transform=" rotate(240 -185.78838324886476 145.0) translate(-233.82685902179844,45.0)" xlink:href="#path2"/>
		<use transform=" rotate(0 -133.82685902179844 145.0) translate(-233.82685902179844,45.0)" xlink:href="#path0"/>
		<use transform=" rotate(120 -133.82685902179844 145.0) translate(-233.82685902179844,45.0)" xlink:href="#path0"/>
		<use transform=" rotate(240 -133.82685902179844 145.0) translate(-233.82685902179844,45.0)" xlink:href="#path0"/>
		<use transform=" rotate(0 -81.86533479473212 145.0) translate(-155.88457268119896,90.0)" xlink:href="#path1"/>
		<use transform=" rotate(120 -81.86533479473212 145.0) translate(-155.88457268119896,90.0)" xlink:href="#path1"/>
		<use transform=" rotate(240 -81.86533479473212 145.0) translate(-155.88457268119896,90.0)" xlink:href="#path1"/>
		<use transform=" rotate(0 -29.903810567665815 145.0) translate(-77.94228634059951,45.0)" xlink:href="#path2"/>
		<use transform=" rotate(120 -29.903810567665815 145.0) translate(-77.94228634059951,45.0)" xlink:href="#path2"/>
		<use transform=" rotate(240 -29.903810567665815 145.0) translate(-77.94228634059951,45.0)" xlink:href="#path2"/>
		<use transform=" rotate(0 22.05771365940052 145.0) translate(-77.94228634059948,45.0)" xlink:href="#path0"/>
		<use transform=" rotate(120 22.05771365940052 145.0) translate(-77.94228634059948,45.0)" xlink:href="#path0"/>
		<use transform=" rotate(240 22.05771365940052 145.0) translate(-77.94228634059948,45.0)" xlink:href="#path0"/>
		<use transform=" rotate(0 74.01923788646684 145.0) translate(0.0,90.0)" xlink:href="#path1"/>
		<use transform=" rotate(120 74.01923788646684 145.0) translate(0.0,90.0)" xlink:href="#path1"/>
		<use transform=" rotate(240 74.01923788646684 145.0) translate(0.0,90.0)" xlink:href="#path1"/>
		<use transform=" rotate(0 125.98076211353315 145.0) translate(77.94228634059945,45.0)" xlink:href="#path2"/>
		<use transform=" rotate(120 125.98076211353315 145.0) translate(77.94228634059945,45.0)" xlink:href="#path2"/>
		<use transform=" rotate(240 125.98076211353315 145.0) translate(77.94228634059945,45.0)" xlink:href="#path2"/>
		<use transform=" rotate(0 177.94228634059948 145.0) translate(77.94228634059948,45.0)" xlink:href="#path0"/>
		<use transform=" rotate(120 177.94228634059948 145.0) translate(77.94228634059948,45.0)" xlink:href="#path0"/>
		<use transform=" rotate(240 177.94228634059948 145.0) translate(77.94228634059948,45.0)" xlink:href="#path0"/>
		<use transform=" rotate(0 229.9038105676658 145.0) translate(155.88457268119896,90.0)" xlink:href="#path1"/>
		<use transform=" rotate(120 229.9038105676658 145.0) translate(155.88457268119896,90.0)" xlink:href="#path1"/>
		<use transform=" rotate(240 229.9038105676658 145.0) translate(155.88457268119896,90.0)" xlink:href="#path1"/>
		<use transform=" rotate(0 281.8653347947321 145.0) translate(233.82685902179844,45.0)" xlink:href="#path2"/>
		<use transform=" rotate(120 281.8653347947321 145.0) translate(233.82685902179844,45.0)" xlink:href="#path2"/>
		<use transform=" rotate(240 281.8653347947321 145.0) translate(233.82685902179844,45.0)" xlink:href="#path2"/>
		<use transform=" rotate(0 333.82685902179844 145.0) translate(233.82685902179844,45.0)" xlink:href="#path0"/>
		<use transform=" rotate(120 333.82685902179844 145.0) translate(233.82685902179844,45.0)" xlink:href="#path0"/>
		<use transform=" rotate(240 333.82685902179844 145.0) translate(233.82685902179844,45.0)" xlink:href="#path0"/>
		<use transform=" rotate(0 385.78838324886476 145.0) translate(311.7691453623979,90.0)" xlink:href="#path1"/>
		<use transform=" rotate(120 385.78838324886476 145.0) translate(311.7691453623979,90.0)" xlink:href="#path1"/>
		<use transform=" rotate(240 385.78838324886476 145.0) translate(311.7691453623979,90.0)" xlink:href="#path1"/>
		<use transform=" rotate(0 437.7499074759311 145.0) translate(389.7114317029974,45.0)" xlink:href="#path2"/>
		<use transform=" rotate(120 437.7499074759311 145.0) translate(389.7114317029974,45.0)" xlink:href="#path2"/>
		<use transform=" rotate(240 437.7499074759311 145.0) translate(389.7114317029974,45.0)" xlink:href="#path2"/>
		<use transform=" rotate(0 489.7114317029974 145.0) translate(389.7114317029974,45.0)" xlink:href="#path0"/>
		<use transform=" rotate(120 489.7114317029974 145.0) translate(389.7114317029974,45.0)" xlink:href="#path0"/>
		<use transform=" rotate(240 489.7114317029974 145.0) translate(389.7114317029974,45.0)" xlink:href="#path0"/>
		<use transform=" rotate(0 541.6729559300637 145.0) translate(467.6537180435969,90.0)" xlink:href="#path1"/>
		<use transform=" rotate(120 541.6729559300637 145.0) translate(467.6537180435969,90.0)" xlink:href="#path1"/>
		<use transform=" rotate(240 541.6729559300637 145.0) translate(467.6537180435969,90.0)" xlink:href="#path1"/>
		<use transform=" rotate(0 593.63448015713 145.0) translate(545.5960043841964,45.0)" xlink:href="#path2"/>
		<use transform=" rotate(120 593.63448015713 145.0) translate(545.5960043841964,45.0)" xlink:href="#path2"/>
		<use transform=" rotate(240 593.63448015713 145.0) translate(545.5960043841964,45.0)" xlink:href="#path2"/>
		<use transform=" rotate(0 -367.6537180435969 190.0) translate(-467.6537180435969,90.0)" xlink:href="#path0"/>
		<use transform=" rotate(120 -367.6537180435969 190.0) translate(-467.6537180435969,90.0)" xlink:href="#path0"/>
		<use transform=" rotate(240 -367.6537180435969 190.0) translate(-467.6537180435969,90.0)" xlink:href="#path0"/>
		<use transform=" rotate(0 -315.69219381653056 190.0) translate(-389.7114317029974,135.0)" xlink:href="#path1"/>
		<use transform=" rotate(120 -315.69219381653056 190.0) translate(-389.7114317029974,135.0)" xlink:href="#path1"/>
		<use transform=" rotate(240 -315.69219381653056 190.0) translate(-389.7114317029974,135.0)" xlink:href="#path1"/>
		<use transform=" rotate(0 -263.73066958946424 190.0) translate(-311.7691453623979,90.0)" xlink:href="#path2"/>
		<use transform=" rotate(120 -263.73066958946424 190.0) translate(-311.7691453623979,90.0)" xlink:href="#path2"/>
		<use transform=" rotate(240 -263.73066958946424 190.0) translate(-311.7691453623979,90.0)" xlink:href="#path2"/>
		<use transform=" rotate(0 -211.76914536239792 190.0) translate(-311.7691453623979,90.0)" xlink:href="#path0"/>
		<use transform=" rotate(120 -211.76914536239792 190.0) translate(-311.7691453623979,90.0)" xlink:href="#path0"/>
		<use transform=" rotate(240 -211.76914536239792 190.0) translate(-311.7691453623979,90.0)" xlink:href="#path0"/>
		<use transform=" rotate(0 -159.8076211353316 190.0) translate(-233.82685902179844,135.0)" xlink:href="#path1"/>
		<use transform=" rotate(120 -159.8076211353316 190.0) translate(-233.82685902179844,135.0)" xlink:href="#path1"/>
		<use transform=" rotate(240 -159.8076211353316 190.0) translate(-233.82685902179844,135.0)" xlink:href="#path1"/>
		<use transform=" rotate(0 -107.8460969082653 190.0) translate(-155.884572681199,90.0)" xlink:href="#path2"/>
		<use transform=" rotate(120 -107.8460969082653 190.0) translate(-155.884572681199,90.0)" xlink:href="#path2"/>
		<use transform=" rotate(240 -107.8460969082653 190.0) translate(-155.884572681199,90.0)" xlink:href="#path2"/>
		<use transform=" rotate(0 -55.88457268119896 190.0) translate(-155.88457268119896,90.0)" xlink:href="#path0"/>
		<use transform=" rotate(120 -55.88457268119896 190.0) translate(-155.88457268119896,90.0)" xlink:href="#path0"/>
		<use transform=" rotate(240 -55.88457268119896 190.0) translate(-155.88457268119896,90.0)" xlink:href="#path0"/>
		<use transform=" rotate(0 -3.9230484541326476 190.0) translate(-77.94228634059948,135.0)" xlink:href="#path1"/>
		<use transform=" rotate(120 -3.9230484541326476 190.0) translate(-77.94228634059948,135.0)" xlink:href="#path1"/>
		<use transform=" rotate(240 -3.9230484541326476 190.0) translate(-77.94228634059948,135.0)" xlink:href="#path1"/>
		<use transform=" rotate(0 48.038475772933666 190.0) translate(-2.1316282072803006e-14,90.0)" xlink:href="#path2"/>
		<use transform=" rotate(120 48.038475772933666 190.0) translate(-2.1316282072803006e-14,90.0)" xlink:href="#path2"/>
		<use transform=" rotate(240 48.038475772933666 190.0) translate(-2.1316282072803006e-14,90.0)" xlink:href="#path2"/>
		<use transform=" rotate(0 100.0 190.0) translate(0.0,90.0)" xlink:href="#path0"/>
		<use transform=" rotate(120 100.0 190.0) translate(0.0,90.0)" xlink:href="#path0"/>
		<use transform=" rotate(240 100.0 190.0) translate(0.0,90.0)" xlink:href="#path0"/>
		<use transform=" rotate(0 151.96152422706632 190.0) translate(77.94228634059948,135.0)" xlink:href="#path1"/>
		<use transform=" rotate(120 151.96152422706632 190.0) translate(77.94228634059948,135.0)" xlink:href="#path1"/>
		<use transform=" rotate(240 151.96152422706632 190.0) translate(77.94228634059948,135.0)" xlink:href="#path1"/>
		<use transform=" rotate(0 203.92304845413264 190.0) translate(155.88457268119896,90.0)" xlink:href="#path2"/>
		<use transform=" rotate(120 203.92304845413264 190.0) translate(155.88457268119896,90.0)" xlink:href="#path2"/>
		<use transform=" rotate(240 203.92304845413264 190.0) translate(155.88457268119896,90.0)" xlink:href="#path2"/>
		<use transform=" rotate(0 255.88457268119896 190.0) translate(155.88457268119896,90.0)" xlink:href="#path0"/>
		<use transform=" rotate(120 255.88457268119896 190.0) translate(155.88457268119896,90.0)" xlink:href="#path0"/>
		<use transform=" rotate(240 255.88457268119896 190.0) translate(155.88457268119896,90.0)" xlink:href="#path0"/>
		<use transform=" rotate(0 307.8460969082653 190.0) translate(233.82685902179844,135.0)" xlink:href="#path1"/>
		<use transform=" rotate(120 307.8460969082653 190.0) translate(233.82685902179844,135.0)" xlink:href="#path1"/>
		<use transform=" rotate(240 307.8460969082653 190.0) translate(233.82685902179844,135.0)" xlink:href="#path1"/>
		<use transform=" rotate(0 359.8076211353316 190.0) translate(311.7691453623979,90.0)" xlink:href="#path2"/>
		<use transform=" rotate(120 359.8076211353316 190.0) translate(311.7691453623979,90.0)" xlink:href="#path2"/>
		<use transform=" rotate(240 359.8076211353316 190.0) translate(311.7691453623979,90.0)" xlink:href="#path2"/>
		<use transform=" rotate(0 411.7691453623979 190.0) translate(311.7691453623979,90.0)" xlink:href="#path0"/>
		<use transform=" rotate(120 411.7691453623979 190.0) translate(311.7691453623979,90.0)" xlink:href="#path0"/>
		<use transform=" rotate(240 411.7691453623979 190.0) translate(311.7691453623979,90.0)" xlink:href="#path0"/>
		<use transform=" rotate(0 463.73066958946424 190.0) translate(389.7114317029974,135.0)" xlink:href="#path1"/>
		<use transform=" rotate(120 463.73066958946424 190.0) translate(389.7114317029974,135.0)" xlink:href="#path1"/>
		<use transform=" rotate(240 463.73066958946424 190.0) translate(389.7114317029974,135.0)" xlink:href="#path1"/>
		<use transform=" rotate(0 515.6921938165306 190.0) translate(467.6537180435969,90.0)" xlink:href="#path2"/>
		<use transform=" rotate(120 515.6921938165306 190.0) translate(467.6537180435969,90.0)" xlink:href="#path2"/>
		<use transform=" rotate(240 515.6921938165306 190.0) translate(467.6537180435969,90.0)" xlink:href="#path2"/>
		<use transform=" rotate(0 -289.7114317029974 235.0) translate(-389.7114317029974,135.0)" xlink:href="#path0"/>
		<use transform=" rotate(120 -289.7114317029974 235.0) translate(-389.7114317029974,135.0)" xlink:href="#path0"/>
		<use transform=" rotate(240 -289.7114317029974 235.0) translate(-389.7114317029974,135.0)" xlink:href="#path0"/>
		<use transform=" rotate(0 -237.74990747593108 235.0) translate(-311.7691453623979,180.0)" xlink:href="#path1"/>
		<use transform=" rotate(120 -237.74990747593108 235.0) translate(-311.7691453623979,180.0)" xlink:href="#path1"/>
		<use transform=" rotate(240 -237.74990747593108 235.0) translate(-311.7691453623979,180.0)" xlink:href="#path1"/>
		<use transform=" rotate(0 -185.78838324886476 235.0) translate(-233.82685902179844,135.0)" xlink:href="#path2"/>
		<use transform=" rotate(120 -185.78838324886476 235.0) translate(-233.82685902179844,135.0)" xlink:href="#path2"/>
		<use transform=" rotate(240 -185.78838324886476 235.0) translate(-233.82685902179844,135.0)" xlink:href="#path2"/>
		<use transform=" rotate(0 -133.82685902179844 235.0) translate(-233.82685902179844,135.0)" xlink:href="#path0"/>
		<use transform=" rotate(120 -133.82685902179844 235.0) translate(-233.82685902179844,135.0)" xlink:href="#path0"/>
		<use transform=" rotate(240 -133.82685902179844 235.0) translate(-233.82685902179844,135.0)" xlink:href="#path0"/>
		<use transform=" rotate(0 -81.86533479473212 235.0) translate(-155.88457268119896,180.0)" xlink:href="#path1"/>
		<use transform=" rotate(120 -81.86533479473212 235.0) translate(-155.88457268119896,180.0)" xlink:href="#path1"/>
		<use transform=" rotate(240 -81.86533479473212 235.0) translate(-155.88457268119896,180.0)" xlink:href="#path1"/>
		<use transform=" rotate(0 -29.903810567665815 235.0) translate(-77.94228634059951,135.0)" xlink:href="#path2"/>
		<use transform=" rotate(120 -29.903810567665815 235.0) translate(-77.94228634059951,135.0)" xlink:href="#path2"/>
		<use transform=" rotate(240 -29.903810567665815 235.0) translate(-77.94228634059951,135.0)" xlink:href="#path2"/>
		<use transform=" rotate(0 22.05771365940052 235.0) translate(-77.94228634059948,135.0)" xlink:href="#path0"/>
		<use transform=" rotate(120 22.05771365940052 235.0) translate(-77.94228634059948,135.0)" xlink:href="#path0"/>
		<use transform=" rotate(240 22.05771365940052 235.0) translate(-77.94228634059948,135.0)" xlink:href="#path0"/>
		<use transform=" rotate(0 74.01923788646684 235.0) translate(0.0,180.0)" xlink:href="#path1"/>
		<use transform=" rotate(120 74.01923788646684 235.0) translate(0.0,180.0)" xlink:href="#path1"/>
		<use transform=" rotate(240 74.01923788646684 235.0) translate(0.0,180.0)" xlink:href="#path1"/>
		<use transform=" rotate(0 125.98076211353315 235.0) translate(77.94228634059945,135.0)" xlink:href="#path2"/>
		<use transform=" rotate(120 125.98076211353315 235.0) translate(77.94228634059945,135.0)" xlink:href="#path2"/>
		<use transform=" rotate(240 125.98076211353315 235.0) translate(77.94228634059945,135.0)" xlink:href="#path2"/>
		<use transform=" rotate(0 177.94228634059948 235.0) translate(77.94228634059948,135.0)" xlink:href="#path0"/>
		<use transform=" rotate(120 177.94228634059948 235.0) translate(77.94228634059948,135.0)" xlink:href="#path0"/>
		<use transform=" rotate(240 177.94228634059948 235.0) translate(77.94228634059948,135.0)" xlink:href="#path0"/>
		<use transform=" rotate(0 229.9038105676658 235.0) translate(155.88457268119896,180.0)" xlink:href="#path1"/>
		<use transform=" rotate(120 229.9038105676658 235.0) translate(155.88457268119896,180.0)" xlink:href="#path1"/>
		<use transform=" rotate(240 229.9038105676658 235.0) translate(155.88457268119896,180.0)" xlink:href="#path1"/>
		<use transform=" rotate(0 281.8653347947321 235.0) translate(233.82685902179844,135.0)" xlink:href="#path2"/>
		<use transform=" rotate(120 281.8653347947321 235.0) translate(233.82685902179844,135.0)" xlink:href="#path2"/>
		<use transform=" rotate(240 281.8653347947321 235.0) translate(233.82685902179844,135.0)" xlink:href="#path2"/>
		<use transform=" rotate(0 333.82685902179844 235.0) translate(233.82685902179844,135.0)" xlink:href="#path0"/>
		<use transform=" rotate(120 333.82685902179844 235.0) translate(233.82685902179844,135.0)" xlink:href="#path0"/>
		<use transform=" rotate(240 333.82685902179844 235.0) translate(233.82685902179844,135.0)" xlink:href="#path0"/>
		<use transform=" rotate(0 385.78838324886476 235.0) translate(311.7691453623979,180.0)" xlink:href="#path1"/>
		<use transform=" rotate(120 385.78838324886476 235.0) translate(311.7691453623979,180.0)" xlink:href="#path1"/>
		<use transform=" rotate(240 385.78838324886476 235.0) translate(311.7691453623979,180.0)" xlink:href="#path1"/>
		<use transform=" rotate(0 437.7499074759311 235.0) translate(389.7114317029974,135.0)" xlink:href="#path2"/>
		<use transform=" rotate(120 437.7499074759311 235.0) translate(389.7114317029974,135.0)" xlink:href="#path2"/>
		<use transform=" rotate(240 437.7499074759311 235.0) translate(389.7114317029974,135.0)" xlink:href="#path2"/>
		<use transform=" rotate(0 489.7114317029974 235.0) translate(389.7114317029974,135.0)" xlink:href="#path0"/>
		<use transform=" rotate(120 489.7114317029974 235.0) translate(389.7114317029974,135.0)" xlink:href="#path0"/>
		<use transform=" rotate(240 489.7114317029974 235.0) translate(389.7114317029974,135.0)" xlink:href="#path0"/>
		<use transform=" rotate(0 541.6729559300637 235.0) translate(467.6537180435969,180.0)" xlink:href="#path1"/>
		<use transform=" rotate(120 541.6729559300637 235.0) translate(467.6537180435969,180.0)" xlink:href="#path1"/>
		<use transform=" rotate(240 541.6729559300637 235.0) translate(467.6537180435969,180.0)" xlink:href="#path1"/>
		<use transform=" rotate(0 593.63448015713 235.0) translate(545.5960043841964,135.0)" xlink:href="#path2"/>
		<use transform=" rotate(120 593.63448015713 235.0) translate(545.5960043841964,135.0)" xlink:href="#path2"/>
		<use transform=" rotate(240 593.63448015713 235.0) translate(545.5960043841964,135.0)" xlink:href="#path2"/>
		<use transform=" rotate(0 -367.6537180435969 280.0) translate(-467.6537180435969,180.0)" xlink:href="#path0"/>
		<use transform=" rotate(120 -367.6537180435969 280.0) translate(-467.6537180435969,180.0)" xlink:href="#path0"/>
		<use transform=" rotate(240 -367.6537180435969 280.0) translate(-467.6537180435969,180.0)" xlink:href="#path0"/>
		<use transform=" rotate(0 -315.69219381653056 280.0) translate(-389.7114317029974,225.0)" xlink:href="#path1"/>
		<use transform=" rotate(120 -315.69219381653056 280.0) translate(-389.7114317029974,225.0)" xlink:href="#path1"/>
		<use transform=" rotate(240 -315.69219381653056 280.0) translate(-389.7114317029974,225.0)" xlink:href="#path1"/>
		<use transform=" rotate(0 -263.73066958946424 280.0) translate(-311.7691453623979,180.0)" xlink:href="#path2"/>
		<use transform=" rotate(120 -263.73066958946424 280.0) translate(-311.7691453623979,180.0)" xlink:href="#path2"/>
		<use transform=" rotate(240 -263.73066958946424 280.0) translate(-311.7691453623979,180.0)" xlink:href="#path2"/>
		<use transform=" rotate(0 -211.76914536239792 280.0) translate(-311.7691453623979,180.0)" xlink:href="#path0"/>
		<use transform=" rotate(120 -211.76914536239792 280.0) translate(-311.7691453623979,180.0)" xlink:href="#path0"/>
		<use transform=" rotate(240 -211.76914536239792 280.0) translate(-311.7691453623979,180.0)" xlink:href="#path0"/>
		<use transform=" rotate(0 -159.8076211353316 280.0) translate(-233.82685902179844,225.0)" xlink:href="#path1"/>
		<use transform=" rotate(120 -159.8076211353316 280.0) translate(-233.82685902179844,225.0)" xlink:href="#path1"/>
		<use transform=" rotate(240 -159.8076211353316 280.0) translate(-233.82685902179844,225.0)" xlink:href="#path1"/>
		<use transform=" rotate(0 -107.8460969082653 280.0) translate(-155.884572681199,180.0)" xlink:href="#path2"/>
		<use transform=" rotate(120 -107.8460969082653 280.0) translate(-155.884572681199,180.0)" xlink:href="#path2"/>
		<use transform=" rotate(240 -107.8460969082653 280.0) translate(-155.884572681199,180.0)" xlink:href="#path2"/>
		<use transform=" rotate(0 -55.88457268119896 280.0) translate(-155.88457268119896,180.0)" xlink:href="#path0"/>
		<use transform=" rotate(120 -55.88457268119896 280.0) translate(-155.88457268119896,180.0)" xlink:href="#path0"/>
		<use transform=" rotate(240 -55.88457268119896 280.0) translate(-155.88457268119896,180.0)" xlink:href="#path0"/>
		<use transform=" rotate(0 -3.9230484541326476 280.0) translate(-77.94228634059948,225.0)" xlink:href="#path1"/>
		<use transform=" rotate(120 -3.9230484541326476 280.0) translate(-77.94228634059948,225.0)" xlink:href="#path1"/>
		<use transform=" rotate(240 -3.9230484541326476 280.0) translate(-77.94228634059948,225.0)" xlink:href="#path1"/>
		<use transform=" rotate(0 48.038475772933666 280.0) translate(-2.1316282072803006e-14,180.0)" xlink:href="#path2"/>
		<use transform=" rotate(120 48.038475772933666 280.0) translate(-2.1316282072803006e-14,180.0)" xlink:href="#path2"/>
		<use transform=" rotate(240 48.038475772933666 280.0) translate(-2.1316282072803006e-14,180.0)" xlink:href="#path2"/>
		<use transform=" rotate(0 100.0 280.0) translate(0.0,180.0)" xlink:href="#path0"/>
		<use transform=" rotate(120 100.0 280.0) translate(0.0,180.0)" xlink:href="#path0"/>
		<use transform=" rotate(240 100.0 280.0) translate(0.0,180.0)" xlink:href="#path0"/>
		<use transform=" rotate(0 151.96152422706632 280.0) translate(77.94228634059948,225.0)" xlink:href="#path1"/>
		<use transform=" rotate(120 151.96152422706632 280.0) translate(77.94228634059948,225.0)" xlink:href="#path1"/>
		<use transform=" rotate(240 151.96152422706632 280.0) translate(77.94228634059948,225.0)" xlink:href="#path1"/>
		<use transform=" rotate(0 203.92304845413264 280.0) translate(155.88457268119896,180.0)" xlink:href="#path2"/>
		<use transform=" rotate(120 203.92304845413264 280.0) translate(155.88457268119896,180.0)" xlink:href="#path2"/>
		<use transform=" rotate(240 203.92304845413264 280.0) translate(155.88457268119896,180.0)" xlink:href="#path2"/>
		<use transform=" rotate(0 255.88457268119896 280.0) translate(155.88457268119896,180.0)" xlink:href="#path0"/>
		<use transform=" rotate(120 255.88457268119896 280.0) translate(155.88457268119896,180.0)" xlink:href="#path0"/>
		<use transform=" rotate(240 255.88457268119896 280.0) translate(155.88457268119896,180.0)" xlink:href="#path0"/>
		<use transform=" rotate(0 307.8460969082653 280.0) translate(233.82685902179844,225.0)" xlink:href="#path1"/>
		<use transform=" rotate(120 307.8460969082653 280.0) translate(233.82685902179844,225.0)" xlink:href="#path1"/>
		<use transform=" rotate(240 307.8460969082653 280.0) translate(233.82685902179844,225.0)" xlink:href="#path1"/>
		<use transform=" rotate(0 359.8076211353316 280.0) translate(311.7691453623979,180.0)" xlink:href="#path2"/>
		<use transform=" rotate(120 359.8076211353316 280.0) translate(311.7691453623979,180.0)" xlink:href="#path2"/>
		<use transform=" rotate(240 359.8076211353316 280.0) translate(311.7691453623979,180.0)" xlink:href="#path2"/>
		<use transform=" rotate(0 411.7691453623979 280.0) translate(311.7691453623979,180.0)" xlink:href="#path0"/>
		<use transform=" rotate(120 411.7691453623979 280.0) translate(311.7691453623979,180.0)" xlink:href="#path0"/>
		<use transform=" rotate(240 411.7691453623979 280.0) translate(311.7691453623979,180.0)" xlink:href="#path0"/>
		<use transform=" rotate(0 463.73066958946424 280.0) translate(389.7114317029974,225.0)" xlink:href="#path1"/>
		<use transform=" rotate(120 463.73066958946424 280.0) translate(389.7114317029974,225.0)" xlink:href="#path1"/>
		<use transform=" rotate(240 463.73066958946424 280.0) translate(389.7114317029974,225.0)" xlink:href="#path1"/>
		<use transform=" rotate(0 515.6921938165306 280.0) translate(467.6537180435969,180.0)" xlink:href="#path2"/>
		<use transform=" rotate(120 515.6921938165306 280.0) translate(467.6537180435969,180.0)" xlink:href="#path2"/>
		<use transform=" rotate(240 515.6921938165306 280.0) translate(467.6537180435969,180.0)" xlink:href="#path2"/>
		<use transform=" rotate(0 -289.7114317029974 325.0) translate(-389.7114317029974,225.0)" xlink:href="#path0"/>
		<use transform=" rotate(120 -289.7114317029974 325.0) translate(-389.7114317029974,225.0)" xlink:href="#path0"/>
		<use transform=" rotate(240 -289.7114317029974 325.0) translate(-389.7114317029974,225.0)" xlink:href="#path0"/>
		<use transform=" rotate(0 -237.74990747593108 325.0) translate(-311.7691453623979,270.0)" xlink:href="#path1"/>
		<use transform=" rotate(120 -237.74990747593108 325.0) translate(-311.7691453623979,270.0)" xlink:href="#path1"/>
		<use transform=" rotate(240 -237.74990747593108 325.0) translate(-311.7691453623979,270.0)" xlink:href="#path1"/>
		<use transform=" rotate(0 -185.78838324886476 325.0) translate(-233.82685902179844,225.0)" xlink:href="#path2"/>
		<use transform=" rotate(120 -185.78838324886476 325.0) translate(-233.82685902179844,225.0)" xlink:href="#path2"/>
		<use transform=" rotate(240 -185.78838324886476 325.0) translate(-233.82685902179844,225.0)" xlink:href="#path2"/>
		<use transform=" rotate(0 -133.82685902179844 325.0) translate(-233.82685902179844,225.0)" xlink:href="#path0"/>
		<use transform=" rotate(120 -133.82685902179844 325.0) translate(-233.82685902179844,225.0)" xlink:href="#path0"/>
		<use transform=" rotate(240 -133.82685902179844 325.0) translate(-233.82685902179844,225.0)" xlink:href="#path0"/>
		<use transform=" rotate(0 -81.86533479473212 325.0) translate(-155.88457268119896,270.0)" xlink:href="#path1"/>
		<use transform=" rotate(120 -81.86533479473212 325.0) translate(-155.88457268119896,270.0)" xlink:href="#path1"/>
		<use transform=" rotate(240 -81.86533479473212 325.0) translate(-155.88457268119896,270.0)" xlink:href="#path1"/>
		<use transform=" rotate(0 -29.903810567665815 325.0) translate(-77.94228634059951,225.0)" xlink:href="#path2"/>
		<use transform=" rotate(120 -29.903810567665815 325.0) translate(-77.94228634059951,225.0)" xlink:href="#path2"/>
		<use transform=" rotate(240 -29.903810567665815 325.0) translate(-77.94228634059951,225.0)" xlink:href="#path2"/>
		<use transform=" rotate(0 22.05771365940052 325.0) translate(-77.94228634059948,225.0)" xlink:href="#path0"/>
		<use transform=" rotate(120 22.05771365940052 325.0) translate(-77.94228634059948,225.0)" xlink:href="#path0"/>
		<use transform=" rotate(240 22.05771365940052 325.0) translate(-77.94228634059948,225.0)" xlink:href="#path0"/>
		<use transform=" rotate(0 74.01923788646684 325.0) translate(0.0,270.0)" xlink:href="#path1"/>
		<use transform=" rotate(120 74.01923788646684 325.0) translate(0.0,270.0)" xlink:href="#path1"/>
		<use transform=" rotate(240 74.01923788646684 325.0) translate(0.0,270.0)" xlink:href="#path1"/>
		<use transform=" rotate(0 125.98076211353315 325.0) translate(77.94228634059945,225.0)" xlink:href="#path2"/>
		<use transform=" rotate(120 125.98076211353315 325.0) translate(77.94228634059945,225.0)" xlink:href="#path2"/>
		<use transform=" rotate(240 125.98076211353315 325.0) translate(77.94228634059945,225.0)" xlink:href="#path2"/>
		<use transform=" rotate(0 177.94228634059948 325.0) translate(77.94228634059948,225.0)" xlink:href="#path0"/>
		<use transform=" rotate(120 177.94228634059948 325.0) translate(77.94228634059948,225.0)" xlink:href="#path0"/>
		<use transform=" rotate(240 177.94228634059948 325.0) translate(77.94228634059948,225.0)" xlink:href="#path0"/>
		<use transform=" rotate(0 229.9038105676658 325.0) translate(155.88457268119896,270.0)" xlink:href="#path1"/>
		<use transform=" rotate(120 229.9038105676658 325.0) translate(155.88457268119896,270.0)" xlink:href="#path1"/>
		<use transform=" rotate(240 229.9038105676658 325.0) translate(155.88457268119896,270.0)" xlink:href="#path1"/>
		<use transform=" rotate(0 281.8653347947321 325.0) translate(233.82685902179844,225.0)" xlink:href="#path2"/>
		<use transform=" rotate(120 281.8653347947321 325.0) translate(233.82685902179844,225.0)" xlink:href="#path2"/>
		<use transform=" rotate(240 281.8653347947321 325.0) translate(233.82685902179844,225.0)" xlink:href="#path2"/>
		<use transform=" rotate(0 333.82685902179844 325.0) translate(233.82685902179844,225.0)" xlink:href="#path0"/>
		<use transform=" rotate(120 333.82685902179844 325.0) translate(233.82685902179844,225.0)" xlink:href="#path0"/>
		<use transform=" rotate(240 333.82685902179844 325.0) translate(233.82685902179844,225.0)" xlink:href="#path0"/>
		<use transform=" rotate(0 385.78838324886476 325.0) translate(311.7691453623979,270.0)" xlink:href="#path1"/>
		<use transform=" rotate(120 385.78838324886476 325.0) translate(311.7691453623979,270.0)" xlink:href="#path1"/>
		<use transform=" rotate(240 385.78838324886476 325.0) translate(311.7691453623979,270.0)" xlink:href="#path1"/>
		<use transform=" rotate(0 437.7499074759311 325.0) translate(389.7114317029974,225.0)" xlink:href="#path2"/>
		<use transform=" rotate(120 437.7499074759311 325.0) translate(389.7114317029974,225.0)" xlink:href="#path2"/>
		<use transform=" rotate(240 437.7499074759311 325.0) translate(389.7114317029974,225.0)" xlink:href="#path2"/>
		<use transform=" rotate(0 489.7114317029974 325.0) translate(389.7114317029974,225.0)" xlink:href="#path0"/>
		<use transform=" rotate(120 489.7114317029974 325.0) translate(389.7114317029974,225.0)" xlink:href="#path0"/>
		<use transform=" rotate(240 489.7114317029974 325.0) translate(389.7114317029974,225.0)" xlink:href="#path0"/>
		<use transform=" rotate(0 541.6729559300637 325.0) translate(467.6537180435969,270.0)" xlink:href="#path1"/>
		<use transform=" rotate(120 541.6729559300637 325.0) translate(467.6537180435969,270.0)" xlink:href="#path1"/>
		<use transform=" rotate(240 541.6729559300637 325.0) translate(467.6537180435969,270.0)" xlink:href="#path1"/>
		<use transform=" rotate(0 593.63448015713 325.0) translate(545.5960043841964,225.0)" xlink:href="#path2"/>
		<use transform=" rotate(120 593.63448015713 325.0) translate(545.5960043841964,225.0)" xlink:href="#path2"/>
		<use transform=" rotate(240 593.63448015713 325.0) translate(545.5960043841964,225.0)" xlink:href="#path2"/>
		<use transform=" rotate(0 -367.6537180435969 370.0) translate(-467.6537180435969,270.0)" xlink:href="#path0"/>
		<use transform=" rotate(120 -367.6537180435969 370.0) translate(-467.6537180435969,270.0)" xlink:href="#path0"/>
		<use transform=" rotate(240 -367.6537180435969 370.0) translate(-467.6537180435969,270.0)" xlink:href="#path0"/>
		<use transform=" rotate(0 -315.69219381653056 370.0) translate(-389.7114317029974,315.0)" xlink:href="#path1"/>
		<use transform=" rotate(120 -315.69219381653056 370.0) translate(-389.7114317029974,315.0)" xlink:href="#path1"/>
		<use transform=" rotate(240 -315.69219381653056 370.0) translate(-389.7114317029974,315.0)" xlink:href="#path1"/>
		<use transform=" rotate(0 -263.73066958946424 370.0) translate(-311.7691453623979,270.0)" xlink:href="#path2"/>
		<use transform=" rotate(120 -263.73066958946424 370.0) translate(-311.7691453623979,270.0)" xlink:href="#path2"/>
		<use transform=" rotate(240 -263.73066958946424 370.0) translate(-311.7691453623979,270.0)" xlink:href="#path2"/>
		<use transform=" rotate(0 -211.76914536239792 370.0) translate(-311.7691453623979,270.0)" xlink:href="#path0"/>
		<use transform=" rotate(120 -211.76914536239792 370.0) translate(-311.7691453623979,270.0)" xlink:href="#path0"/>
		<use transform=" rotate(240 -211.76914536239792 370.0) translate(-311.7691453623979,270.0)" xlink:href="#path0"/>
		<use transform=" rotate(0 -159.8076211353316 370.0) translate(-233.82685902179844,315.0)" xlink:href="#path1"/>
		<use transform=" rotate(120 -159.8076211353316 370.0) translate(-233.82685902179844,315.0)" xlink:href="#path1"/>
		<use transform=" rotate(240 -159.8076211353316 370.0) translate(-233.82685902179844,315.0)" xlink:href="#path1"/>
		<use transform=" rotate(0 -107.8460969082653 370.0) translate(-155.884572681199,270.0)" xlink:href="#path2"/>
		<use transform=" rotate(120 -107.8460969082653 370.0) translate(-155.884572681199,270.0)" xlink:href="#path2"/>
		<use transform=" rotate(240 -107.8460969082653 370.0) translate(-155.884572681199,270.0)" xlink:href="#path2"/>
		<use transform=" rotate(0 -55.88457268119896 370.0) translate(-155.88457268119896,270.0)" xlink:href="#path0"/>
		<use transform=" rotate(120 -55.88457268119896 370.0) translate(-155.88457268119896,270.0)" xlink:href="#path0"/>
		<use transform=" rotate(240 -55.88457268119896 370.0) translate(-155.88457268119896,270.0)" xlink:href="#path0"/>
		<use transform=" rotate(0 -3.9230484541326476 370.0) translate(-77.94228634059948,315.0)" xlink:href="#path1"/>
		<use transform=" rotate(120 -3.9230484541326476 370.0) translate(-77.94228634059948,315.0)" xlink:href="#path1"/>
		<use transform=" rotate(240 -3.9230484541326476 370.0) translate(-77.94228634059948,315.0)" xlink:href="#path1"/>
		<use transform=" rotate(0 48.038475772933666 370.0) translate(-2.1316282072803006e-14,270.0)" xlink:href="#path2"/>
		<use transform=" rotate(120 48.038475772933666 370.0) translate(-2.1316282072803006e-14,270.0)" xlink:href="#path2"/>
		<use transform=" rotate(240 48.038475772933666 370.0) translate(-2.1316282072803006e-14,270.0)" xlink:href="#path2"/>
		<use transform=" rotate(0 100.0 370.0) translate(0.0,270.0)" xlink:href="#path0"/>
		<use transform=" rotate(120 100.0 370.0) translate(0.0,270.0)" xlink:href="#path0"/>
		<use transform=" rotate(240 100.0 370.0) translate(0.0,270.0)" xlink:href="#path0"/>
		<use transform=" rotate(0 151.96152422706632 370.0) translate(77.94228634059948,315.0)" xlink:href="#path1"/>
		<use transform=" rotate(120 151.96152422706632 370.0) translate(77.94228634059948,315.0)" xlink:href="#path1"/>
		<use transform=" rotate(240 151.96152422706632 370.0) translate(77.94228634059948,315.0)" xlink:href="#path1"/>
		<use transform=" rotate(0 203.92304845413264 370.0) translate(155.88457268119896,270.0)" xlink:href="#path2"/>
		<use transform=" rotate(120 203.92304845413264 370.0) translate(155.88457268119896,270.0)" xlink:href="#path2"/>
		<use transform=" rotate(240 203.92304845413264 370.0) translate(155.88457268119896,270.0)" xlink:href="#path2"/>
		<use transform=" rotate(0 255.88457268119896 370.0) translate(155.88457268119896,270.0)" xlink:href="#path0"/>
		<use transform=" rotate(120 255.88457268119896 370.0) translate(155.88457268119896,270.0)" xlink:href="#path0"/>
		<use transform=" rotate(240 255.88457268119896 370.0) translate(155.88457268119896,270.0)" xlink:href="#path0"/>
		<use transform=" rotate(0 307.8460969082653 370.0) translate(233.82685902179844,315.0)" xlink:href="#path1"/>
		<use transform=" rotate(120 307.8460969082653 370.0) translate(233.82685902179844,315.0)" xlink:href="#path1"/>
		<use transform=" rotate(240 307.8460969082653 370.0) translate(233.82685902179844,315.0)" xlink:href="#path1"/>
		<use transform=" rotate(0 359.8076211353316 370.0) translate(311.7691453623979,270.0)" xlink:href="#path2"/>
		<use transform=" rotate(120 359.8076211353316 370.0) translate(311.7691453623979,270.0)" xlink:href="#path2"/>
		<use transform=" rotate(240 359.8076211353316 370.0) translate(311.7691453623979,270.0)" xlink:href="#path2"/>
		<use transform=" rotate(0 411.7691453623979 370.0) translate(311.7691453623979,270.0)" xlink:href="#path0"/>
		<use transform=" rotate(120 411.7691453623979 370.0) translate(311.7691453623979,270.0)" xlink:href="#path0"/>
		<use transform=" rotate(240 411.7691453623979 370.0) translate(311.7691453623979,270.0)" xlink:href="#path0"/>
		<use transform=" rotate(0 463.73066958946424 370.0) translate(389.7114317029974,315.0)" xlink:href="#path1"/>
		<use transform=" rotate(120 463.73066958946424 370.0) translate(389.7114317029974,315.0)" xlink:href="#path1"/>
		<use transform=" rotate(240 463.73066958946424 370.0) translate(389.7114317029974,315.0)" xlink:href="#path1"/>
		<use transform=" rotate(0 515.6921938165306 370.0) translate(467.6537180435969,270.0)" xlink:href="#path2"/>
		<use transform=" rotate(120 515.6921938165306 370.0) translate(467.6537180435969,270.0)" xlink:href="#path2"/>
		<use transform=" rotate(240 515.6921938165306 370.0) translate(467.6537180435969,270.0)" xlink:href="#path2"/>
		<use transform=" rotate(0 -289.7114317029974 415.0) translate(-389.7114317029974,315.0)" xlink:href="#path0"/>
		<use transform=" rotate(120 -289.7114317029974 415.0) translate(-389.7114317029974,315.0)" xlink:href="#path0"/>
		<use transform=" rotate(240 -289.7114317029974 415.0) translate(-389.7114317029974,315.0)" xlink:href="#path0"/>
		<use transform=" rotate(0 -237.74990747593108 415.0) translate(-311.7691453623979,360.0)" xlink:href="#path1"/>
		<use transform=" rotate(120 -237.74990747593108 415.0) translate(-311.7691453623979,360.0)" xlink:href="#path1"/>
		<use transform=" rotate(240 -237.74990747593108 415.0) translate(-311.7691453623979,360.0)" xlink:href="#path1"/>
		<use transform=" rotate(0 -185.78838324886476 415.0) translate(-233.82685902179844,315.0)" xlink:href="#path2"/>
		<use transform=" rotate(120 -185.78838324886476 415.0) translate(-233.82685902179844,315.0)" xlink:href="#path2"/>
		<use transform=" rotate(240 -185.78838324886476 415.0) translate(-233.82685902179844,315.0)" xlink:href="#path2"/>
		<use transform=" rotate(0 -133.82685902179844 415.0) translate(-233.82685902179844,315.0)" xlink:href="#path0"/>
		<use transform=" rotate(120 -133.82685902179844 415.0) translate(-233.82685902179844,315.0)" xlink:href="#path0"/>
		<use transform=" rotate(240 -133.82685902179844 415.0) translate(-233.82685902179844,315.0)" xlink:href="#path0"/>
		<use transform=" rotate(0 -81.86533479473212 415.0) translate(-155.88457268119896,360.0)" xlink:href="#path1"/>
		<use transform=" rotate(120 -81.86533479473212 415.0) translate(-155.88457268119896,360.0)" xlink:href="#path1"/>
		<use transform=" rotate(240 -81.86533479473212 415.0) translate(-155.88457268119896,360.0)" xlink:href="#path1"/>
		<use transform=" rotate(0 -29.903810567665815 415.0) translate(-77.94228634059951,315.0)" xlink:href="#path2"/>
		<use transform=" rotate(120 -29.903810567665815 415.0) translate(-77.94228634059951,315.0)" xlink:href="#path2"/>
		<use transform=" rotate(240 -29.903810567665815 415.0) translate(-77.94228634059951,315.0)" xlink:href="#path2"/>
		<use transform=" rotate(0 22.05771365940052 415.0) translate(-77.94228634059948,315.0)" xlink:href="#path0"/>
		<use transform=" rotate(120 22.05771365940052 415.0) translate(-77.94228634059948,315.0)" xlink:href="#path0"/>
		<use transform=" rotate(240 22.05771365940052 415.0) translate(-77.94228634059948,315.0)" xlink:href="#path0"/>
		<use transform=" rotate(0 74.01923788646684 415.0) translate(0.0,360.0)" xlink:href="#path1"/>
		<use transform=" rotate(120 74.01923788646684 415.0) translate(0.0,360.0)" xlink:href="#path1"/>
		<use transform=" rotate(240 74.01923788646684 415.0) translate(0.0,360.0)" xlink:href="#path1"/>
		<use transform=" rotate(0 125.98076211353315 415.0) translate(77.94228634059945,315.0)" xlink:href="#path2"/>
		<use transform=" rotate(120 125.98076211353315 415.0) translate(77.94228634059945,315.0)" xlink:href="#path2"/>
		<use transform=" rotate(240 125.98076211353315 415.0) translate(77.94228634059945,315.0)" xlink:href="#path2"/>
		<use transform=" rotate(0 177.94228634059948 415.0) translate(77.94228634059948,315.0)" xlink:href="#path0"/>
		<use transform=" rotate(120 177.94228634059948 415.0) translate(77.94228634059948,315.0)" xlink:href="#path0"/>
		<use transform=" rotate(240 177.94228634059948 415.0) translate(77.94228634059948,315.0)" xlink:href="#path0"/>
		<use transform=" rotate(0 229.9038105676658 415.0) translate(155.88457268119896,360.0)" xlink:href="#path1"/>
		<use transform=" rotate(120 229.9038105676658 415.0) translate(155.88457268119896,360.0)" xlink:href="#path1"/>
		<use transform=" rotate(240 229.9038105676658 415.0) translate(155.88457268119896,360.0)" xlink:href="#path1"/>
		<use transform=" rotate(0 281.8653347947321 415.0) translate(233.82685902179844,315.0)" xlink:href="#path2"/>
		<use transform=" rotate(120 281.8653347947321 415.0) translate(233.82685902179844,315.0)" xlink:href="#path2"/>
		<use transform=" rotate(240 281.8653347947321 415.0) translate(233.82685902179844,315.0)" xlink:href="#path2"/>
		<use transform=" rotate(0 333.82685902179844 415.0) translate(233.82685902179844,315.0)" xlink:href="#path0"/>
		<use transform=" rotate(120 333.82685902179844 415.0) translate(233.82685902179844,315.0)" xlink:href="#path0"/>
		<use transform=" rotate(240 333.82685902179844 415.0) translate(233.82685902179844,315.0)" xlink:href="#path0"/>
		<use transform=" rotate(0 385.78838324886476 415.0) translate(311.7691453623979,360.0)" xlink:href="#path1"/>
		<use transform=" rotate(120 385.78838324886476 415.0) translate(311.7691453623979,360.0)" xlink:href="#path1"/>
		<use transform=" rotate(240 385.78838324886476 415.0) translate(311.7691453623979,360.0)" xlink:href="#path1"/>
		<use transform=" rotate(0 437.7499074759311 415.0) translate(389.7114317029974,315.0)" xlink:href="#path2"/>
		<use transform=" rotate(120 437.7499074759311 415.0) translate(389.7114317029974,315.0)" xlink:href="#path2"/>
		<use transform=" rotate(240 437.7499074759311 415.0) translate(389.7114317029974,315.0)" xlink:href="#path2"/>
		<use transform=" rotate(0 489.7114317029974 415.0) translate(389.7114317029974,315.0)" xlink:href="#path0"/>
		<use transform=" rotate(120 489.7114317029974 415.0) translate(389.7114317029974,315.0)" xlink:href="#path0"/>
		<use transform=" rotate(240 489.7114317029974 415.0) translate(389.7114317029974,315.0)" xlink:href="#path0"/>
		<use transform=" rotate(0 541.6729559300637 415.0) translate(467.6537180435969,360.0)" xlink:href="#path1"/>
		<use transform=" rotate(120 541.6729559300637 415.0) translate(467.6537180435969,360.0)" xlink:href="#path1"/>
		<use transform=" rotate(240 541.6729559300637 415.0) translate(467.6537180435969,360.0)" xlink:href="#path1"/>
		<use transform=" rotate(0 593.63448015713 415.0) translate(545.5960043841964,315.0)" xlink:href="#path2"/>
		<use transform=" rotate(120 593.63448015713 415.0) translate(545.5960043841964,315.0)" xlink:href="#path2"/>
		<use transform=" rotate(240 593.63448015713 415.0) translate(545.5960043841964,315.0)" xlink:href="#path2"/>
		<use transform=" rotate(0 -367.6537180435969 460.0) translate(-467.6537180435969,360.0)" xlink:href="#path0"/>
		<use transform=" rotate(120 -367.6537180435969 460.0) translate(-467.6537180435969,360.0)" xlink:href="#path0"/>
		<use transform=" rotate(240 -367.6537180435969 460.0) translate(-467.6537180435969,360.0)" xlink:href="#path0"/>
		<use transform=" rotate(0 -315.69219381653056 460.0) translate(-389.7114317029974,405.0)" xlink:href="#path1"/>
		<use transform=" rotate(120 -315.69219381653056 460.0) translate(-389.7114317029974,405.0)" xlink:href="#path1"/>
		<use transform=" rotate(240 -315.69219381653056 460.0) translate(-389.7114317029974,405.0)" xlink:href="#path1"/>
		<use transform=" rotate(0 -263.73066958946424 460.0) translate(-311.7691453623979,360.0)" xlink:href="#path2"/>
		<use transform=" rotate(120 -263.73066958946424 460.0) translate(-311.7691453623979,360.0)" xlink:href="#path2"/>
		<use transform=" rotate(240 -263.73066958946424 460.0) translate(-311.7691453623979,360.0)" xlink:href="#path2"/>
		<use transform=" rotate(0 -211.76914536239792 460.0) translate(-311.7691453623979,360.0)" xlink:href="#path0"/>
		<use transform=" rotate(120 -211.76914536239792 460.0) translate(-311.7691453623979,360.0)" xlink:href="#path0"/>
		<use transform=" rotate(240 -211.76914536239792 460.0) translate(-311.7691453623979,360.0)" xlink:href="#path0"/>
		<use transform=" rotate(0 -159.8076211353316 460.0) translate(-233.82685902179844,405.0)" xlink:href="#path1"/>
		<use transform=" rotate(120 -159.8076211353316 460.0) translate(-233.82685902179844,405.0)" xlink:href="#path1"/>
		<use transform=" rotate(240 -159.8076211353316 460.0) translate(-233.82685902179844,405.0)" xlink:href="#path1"/>
		<use transform=" rotate(0 -107.8460969082653 460.0) translate(-155.884572681199,360.0)" xlink:href="#path2"/>
		<use transform=" rotate(120 -107.8460969082653 460.0) translate(-155.884572681199,360.0)" xlink:href="#path2"/>
		<use transform=" rotate(240 -107.8460969082653 460.0) translate(-155.884572681199,360.0)" xlink:href="#path2"/>
		<use transform=" rotate(0 -55.88457268119896 460.0) translate(-155.88457268119896,360.0)" xlink:href="#path0"/>
		<use transform=" rotate(120 -55.88457268119896 460.0) translate(-155.88457268119896,360.0)" xlink:href="#path0"/>
		<use transform=" rotate(240 -55.88457268119896 460.0) translate(-155.88457268119896,360.0)" xlink:href="#path0"/>
		<use transform=" rotate(0 -3.9230484541326476 460.0) translate(-77.94228634059948,405.0)" xlink:href="#path1"/>
		<use transform=" rotate(120 -3.9230484541326476 460.0) translate(-77.94228634059948,405.0)" xlink:href="#path1"/>
		<use transform=" rotate(240 -3.9230484541326476 460.0) translate(-77.94228634059948,405.0)" xlink:href="#path1"/>
		<use transform=" rotate(0 48.038475772933666 460.0) translate(-2.1316282072803006e-14,360.0)" xlink:href="#path2"/>
		<use transform=" rotate(120 48.038475772933666 460.0) translate(-2.1316282072803006e-14,360.0)" xlink:href="#path2"/>
		<use transform=" rotate(240 48.038475772933666 460.0) translate(-2.1316282072803006e-14,360.0)" xlink:href="#path2"/>
		<use transform=" rotate(0 100.0 460.0) translate(0.0,360.0)" xlink:href="#path0"/>
		<use transform=" rotate(120 100.0 460.0) translate(0.0,360.0)" xlink:href="#path0"/>
		<use transform=" rotate(240 100.0 460.0) translate(0.0,360.0)" xlink:href="#path0"/>
		<use transform=" rotate(0 151.96152422706632 460.0) translate(77.94228634059948,405.0)" xlink:href="#path1"/>
		<use transform=" rotate(120 151.96152422706632 460.0) translate(77.94228634059948,405.0)" xlink:href="#path1"/>
		<use transform=" rotate(240 151.96152422706632 460.0) translate(77.94228634059948,405.0)" xlink:href="#path1"/>
		<use transform=" rotate(0 203.92304845413264 460.0) translate(155.88457268119896,360.0)" xlink:href="#path2"/>
		<use transform=" rotate(120 203.92304845413264 460.0) translate(155.88457268119896,360.0)" xlink:href="#path2"/>
		<use transform=" rotate(240 203.92304845413264 460.0) translate(155.88457268119896,360.0)" xlink:href="#path2"/>
		<use transform=" rotate(0 255.88457268119896 460.0) translate(155.88457268119896,360.0)" xlink:href="#path0"/>
		<use transform=" rotate(120 255.88457268119896 460.0) translate(155.88457268119896,360.0)" xlink:href="#path0"/>
		<use transform=" rotate(240 255.88457268119896 460.0) translate(155.88457268119896,360.0)" xlink:href="#path0"/>
		<use transform=" rotate(0 307.8460969082653 460.0) translate(233.82685902179844,405.0)" xlink:href="#path1"/>
		<use transform=" rotate(120 307.8460969082653 460.0) translate(233.82685902179844,405.0)" xlink:href="#path1"/>
		<use transform=" rotate(240 307.8460969082653 460.0) translate(233.82685902179844,405.0)" xlink:href="#path1"/>
		<use transform=" rotate(0 359.8076211353316 460.0) translate(311.7691453623979,360.0)" xlink:href="#path2"/>
		<use transform=" rotate(120 359.8076211353316 460.0) translate(311.7691453623979,360.0)" xlink:href="#path2"/>
		<use transform=" rotate(240 359.8076211353316 460.0) translate(311.7691453623979,360.0)" xlink:href="#path2"/>
		<use transform=" rotate(0 411.7691453623979 460.0) translate(311.7691453623979,360.0)" xlink:href="#path0"/>
		<use transform=" rotate(120 411.7691453623979 460.0) translate(311.7691453623979,360.0)" xlink:href="#path0"/>
		<use transform=" rotate(240 411.7691453623979 460.0) translate(311.7691453623979,360.0)" xlink:href="#path0"/>
		<use transform=" rotate(0 463.73066958946424 460.0) translate(389.7114317029974,405.0)" xlink:href="#path1"/>
		<use transform=" rotate(120 463.73066958946424 460.0) translate(389.7114317029974,405.0)" xlink:href="#path1"/>
		<use transform=" rotate(240 463.73066958946424 460.0) translate(389.7114317029974,405.0)" xlink:href="#path1"/>
		<use transform=" rotate(0 515.6921938165306 460.0) translate(467.6537180435969,360.0)" xlink:href="#path2"/>
		<use transform=" rotate(120 515.6921938165306 460.0) translate(467.6537180435969,360.0)" xlink:href="#path2"/>
		<use transform=" rotate(240 515.6921938165306 460.0) translate(467.6537180435969,360.0)" xlink:href="#path2"/>


	</g>


</svg>








