<?xml version="1.0" encoding="UTF-8" standalone="no"?>
<?xml-stylesheet href="tess.css" type="text/css"?>
<svg id="tess" viewBox="0 0 400 400" xmlns="http://www.w3.org/2000/svg" xmlns:xlink="http://www.w3.org/1999/xlink">
	<script type="text/javascript" xlink:href="https://cdn.jsdelivr.net/npm/interactjs/dist/interact.min.js"/>
	<script type="text/javascript" xlink:href="tess.js"/>
	<defs>
		<circle id="point-handle"
			r="2" x="0" y="0"
			stroke-width="2"
			fill="#f00"
			fill-opacity="0.4"
			stroke="#ddd"/>
	</defs>

	<g>

		<path id="hor" d="M 50,50 62.5,50 75,50 87.5,50 100,50" style="fill:none;stroke:#000000;stroke-width:2px"/>
		<path id="vert" d="M 50,50 50,62.5 50,75 50,87.5 50,100" style="fill:none;stroke:#000000;stroke-width:2px"/>

		<use transform=" rotate(0 0 -50) translate(-50,-50)" xlink:href="#hor"/>
		<use transform=" rotate(0 0 -50) translate(-50,-50)" xlink:href="#vert"/>
		<use transform=" rotate(0 0 -50) translate(0,-50)" xlink:href="#hor"/>
		<use transform=" rotate(0 0 -50) translate(0,-50)" xlink:href="#vert"/>
		<use transform=" rotate(0 50 -50) translate(50,-50)" xlink:href="#hor"/>
		<use transform=" rotate(0 50 -50) translate(50,-50)" xlink:href="#vert"/>
		<use transform=" rotate(0 100 -50) translate(100,-50)" xlink:href="#hor"/>
		<use transform=" rotate(0 100 -50) translate(100,-50)" xlink:href="#vert"/>
		<use transform=" rotate(0 150 -50) translate(150,-50)" xlink:href="#hor"/>
		<use transform=" rotate(0 150 -50) translate(150,-50)" xlink:href="#vert"/>
		<use transform=" rotate(0 200 -50) translate(200,-50)" xlink:href="#hor"/>
		<use transform=" rotate(0 200 -50) translate(200,-50)" xlink:href="#vert"/>
		<use transform=" rotate(0 250 -50) translate(250,-50)" xlink:href="#hor"/>
		<use transform=" rotate(0 250 -50) translate(250,-50)" xlink:href="#vert"/>
		<use transform=" rotate(0 300 -50) translate(300,-50)" xlink:href="#hor"/>
		<use transform=" rotate(0 300 -50) translate(300,-50)" xlink:href="#vert"/>
		<use transform=" rotate(0 350 -50) translate(350,-50)" xlink:href="#hor"/>
		<use transform=" rotate(0 350 -50) translate(350,-50)" xlink:href="#vert"/>
		<use transform=" rotate(0 -50 0) translate(-50,0)" xlink:href="#hor"/>
		<use transform=" rotate(0 -50 0) translate(-50,0)" xlink:href="#vert"/>
		<use transform=" rotate(0 0 0) translate(0,0)" xlink:href="#hor"/>
		<use transform=" rotate(0 0 0) translate(0,0)" xlink:href="#vert"/>
		<use transform=" rotate(0 50 0) translate(50,0)" xlink:href="#hor"/>
		<use transform=" rotate(0 50 0) translate(50,0)" xlink:href="#vert"/>
		<use transform=" rotate(0 100 0) translate(100,0)" xlink:href="#hor"/>
		<use transform=" rotate(0 100 0) translate(100,0)" xlink:href="#vert"/>
		<use transform=" rotate(0 150 0) translate(150,0)" xlink:href="#hor"/>
		<use transform=" rotate(0 150 0) translate(150,0)" xlink:href="#vert"/>
		<use transform=" rotate(0 200 0) translate(200,0)" xlink:href="#hor"/>
		<use transform=" rotate(0 200 0) translate(200,0)" xlink:href="#vert"/>
		<use transform=" rotate(0 250 0) translate(250,0)" xlink:href="#hor"/>
		<use transform=" rotate(0 250 0) translate(250,0)" xlink:href="#vert"/>
		<use transform=" rotate(0 300 0) translate(300,0)" xlink:href="#hor"/>
		<use transform=" rotate(0 300 0) translate(300,0)" xlink:href="#vert"/>
		<use transform=" rotate(0 350 0) translate(350,0)" xlink:href="#hor"/>
		<use transform=" rotate(0 350 0) translate(350,0)" xlink:href="#vert"/>
		<use transform=" rotate(0 -50 50) translate(-50,50)" xlink:href="#hor"/>
		<use transform=" rotate(0 -50 50) translate(-50,50)" xlink:href="#vert"/>
		<use transform=" rotate(0 0 50) translate(0,50)" xlink:href="#hor"/>
		<use transform=" rotate(0 0 50) translate(0,50)" xlink:href="#vert"/>
		<use transform=" rotate(0 50 50) translate(50,50)" xlink:href="#hor"/>
		<use transform=" rotate(0 50 50) translate(50,50)" xlink:href="#vert"/>
		<use transform=" rotate(0 100 50) translate(100,50)" xlink:href="#hor"/>
		<use transform=" rotate(0 100 50) translate(100,50)" xlink:href="#vert"/>
		<use transform=" rotate(0 150 50) translate(150,50)" xlink:href="#hor"/>
		<use transform=" rotate(0 150 50) translate(150,50)" xlink:href="#vert"/>
		<use transform=" rotate(0 200 50) translate(200,50)" xlink:href="#hor"/>
		<use transform=" rotate(0 200 50) translate(200,50)" xlink:href="#vert"/>
		<use transform=" rotate(0 250 50) translate(250,50)" xlink:href="#hor"/>
		<use transform=" rotate(0 250 50) translate(250,50)" xlink:href="#vert"/>
		<use transform=" rotate(0 300 50) translate(300,50)" xlink:href="#hor"/>
		<use transform=" rotate(0 300 50) translate(300,50)" xlink:href="#vert"/>
		<use transform=" rotate(0 350 50) translate(350,50)" xlink:href="#hor"/>
		<use transform=" rotate(0 350 50) translate(350,50)" xlink:href="#vert"/>
		<use transform=" rotate(0 -50 100) translate(-50,100)" xlink:href="#hor"/>
		<use transform=" rotate(0 -50 100) translate(-50,100)" xlink:href="#vert"/>
		<use transform=" rotate(0 0 100) translate(0,100)" xlink:href="#hor"/>
		<use transform=" rotate(0 0 100) translate(0,100)" xlink:href="#vert"/>
		<use transform=" rotate(0 50 100) translate(50,100)" xlink:href="#hor"/>
		<use transform=" rotate(0 50 100) translate(50,100)" xlink:href="#vert"/>
		<use transform=" rotate(0 100 100) translate(100,100)" xlink:href="#hor"/>
		<use transform=" rotate(0 100 100) translate(100,100)" xlink:href="#vert"/>
		<use transform=" rotate(0 150 100) translate(150,100)" xlink:href="#hor"/>
		<use transform=" rotate(0 150 100) translate(150,100)" xlink:href="#vert"/>
		<use transform=" rotate(0 200 100) translate(200,100)" xlink:href="#hor"/>
		<use transform=" rotate(0 200 100) translate(200,100)" xlink:href="#vert"/>
		<use transform=" rotate(0 250 100) translate(250,100)" xlink:href="#hor"/>
		<use transform=" rotate(0 250 100) translate(250,100)" xlink:href="#vert"/>
		<use transform=" rotate(0 300 100) translate(300,100)" xlink:href="#hor"/>
		<use transform=" rotate(0 300 100) translate(300,100)" xlink:href="#vert"/>
		<use transform=" rotate(0 350 100) translate(350,100)" xlink:href="#hor"/>
		<use transform=" rotate(0 350 100) translate(350,100)" xlink:href="#vert"/>
		<use transform=" rotate(0 -50 150) translate(-50,150)" xlink:href="#hor"/>
		<use transform=" rotate(0 -50 150) translate(-50,150)" xlink:href="#vert"/>
		<use transform=" rotate(0 0 150) translate(0,150)" xlink:href="#hor"/>
		<use transform=" rotate(0 0 150) translate(0,150)" xlink:href="#vert"/>
		<use transform=" rotate(0 50 150) translate(50,150)" xlink:href="#hor"/>
		<use transform=" rotate(0 50 150) translate(50,150)" xlink:href="#vert"/>
		<use transform=" rotate(0 100 150) translate(100,150)" xlink:href="#hor"/>
		<use transform=" rotate(0 100 150) translate(100,150)" xlink:href="#vert"/>
		<use transform=" rotate(0 150 150) translate(150,150)" xlink:href="#hor"/>
		<use transform=" rotate(0 150 150) translate(150,150)" xlink:href="#vert"/>
		<use transform=" rotate(0 200 150) translate(200,150)" xlink:href="#hor"/>
		<use transform=" rotate(0 200 150) translate(200,150)" xlink:href="#vert"/>
		<use transform=" rotate(0 250 150) translate(250,150)" xlink:href="#hor"/>
		<use transform=" rotate(0 250 150) translate(250,150)" xlink:href="#vert"/>
		<use transform=" rotate(0 300 150) translate(300,150)" xlink:href="#hor"/>
		<use transform=" rotate(0 300 150) translate(300,150)" xlink:href="#vert"/>
		<use transform=" rotate(0 350 150) translate(350,150)" xlink:href="#hor"/>
		<use transform=" rotate(0 350 150) translate(350,150)" xlink:href="#vert"/>
		<use transform=" rotate(0 -50 200) translate(-50,200)" xlink:href="#hor"/>
		<use transform=" rotate(0 -50 200) translate(-50,200)" xlink:href="#vert"/>
		<use transform=" rotate(0 0 200) translate(0,200)" xlink:href="#hor"/>
		<use transform=" rotate(0 0 200) translate(0,200)" xlink:href="#vert"/>
		<use transform=" rotate(0 50 200) translate(50,200)" xlink:href="#hor"/>
		<use transform=" rotate(0 50 200) translate(50,200)" xlink:href="#vert"/>
		<use transform=" rotate(0 100 200) translate(100,200)" xlink:href="#hor"/>
		<use transform=" rotate(0 100 200) translate(100,200)" xlink:href="#vert"/>
		<use transform=" rotate(0 150 200) translate(150,200)" xlink:href="#hor"/>
		<use transform=" rotate(0 150 200) translate(150,200)" xlink:href="#vert"/>
		<use transform=" rotate(0 200 200) translate(200,200)" xlink:href="#hor"/>
		<use transform=" rotate(0 200 200) translate(200,200)" xlink:href="#vert"/>
		<use transform=" rotate(0 250 200) translate(250,200)" xlink:href="#hor"/>
		<use transform=" rotate(0 250 200) translate(250,200)" xlink:href="#vert"/>
		<use transform=" rotate(0 300 200) translate(300,200)" xlink:href="#hor"/>
		<use transform=" rotate(0 300 200) translate(300,200)" xlink:href="#vert"/>
		<use transform=" rotate(0 350 200) translate(350,200)" xlink:href="#hor"/>
		<use transform=" rotate(0 350 200) translate(350,200)" xlink:href="#vert"/>
		<use transform=" rotate(0 -50 250) translate(-50,250)" xlink:href="#hor"/>
		<use transform=" rotate(0 -50 250) translate(-50,250)" xlink:href="#vert"/>
		<use transform=" rotate(0 0 250) translate(0,250)" xlink:href="#hor"/>
		<use transform=" rotate(0 0 250) translate(0,250)" xlink:href="#vert"/>
		<use transform=" rotate(0 50 250) translate(50,250)" xlink:href="#hor"/>
		<use transform=" rotate(0 50 250) translate(50,250)" xlink:href="#vert"/>
		<use transform=" rotate(0 100 250) translate(100,250)" xlink:href="#hor"/>
		<use transform=" rotate(0 100 250) translate(100,250)" xlink:href="#vert"/>
		<use transform=" rotate(0 150 250) translate(150,250)" xlink:href="#hor"/>
		<use transform=" rotate(0 150 250) translate(150,250)" xlink:href="#vert"/>
		<use transform=" rotate(0 200 250) translate(200,250)" xlink:href="#hor"/>
		<use transform=" rotate(0 200 250) translate(200,250)" xlink:href="#vert"/>
		<use transform=" rotate(0 250 250) translate(250,250)" xlink:href="#hor"/>
		<use transform=" rotate(0 250 250) translate(250,250)" xlink:href="#vert"/>
		<use transform=" rotate(0 300 250) translate(300,250)" xlink:href="#hor"/>
		<use transform=" rotate(0 300 250) translate(300,250)" xlink:href="#vert"/>
		<use transform=" rotate(0 350 250) translate(350,250)" xlink:href="#hor"/>
		<use transform=" rotate(0 350 250) translate(350,250)" xlink:href="#vert"/>
		<use transform=" rotate(0 -50 300) translate(-50,300)" xlink:href="#hor"/>
		<use transform=" rotate(0 -50 300) translate(-50,300)" xlink:href="#vert"/>
		<use transform=" rotate(0 0 300) translate(0,300)" xlink:href="#hor"/>
		<use transform=" rotate(0 0 300) translate(0,300)" xlink:href="#vert"/>
		<use transform=" rotate(0 50 300) translate(50,300)" xlink:href="#hor"/>
		<use transform=" rotate(0 50 300) translate(50,300)" xlink:href="#vert"/>
		<use transform=" rotate(0 100 300) translate(100,300)" xlink:href="#hor"/>
		<use transform=" rotate(0 100 300) translate(100,300)" xlink:href="#vert"/>
		<use transform=" rotate(0 150 300) translate(150,300)" xlink:href="#hor"/>
		<use transform=" rotate(0 150 300) translate(150,300)" xlink:href="#vert"/>
		<use transform=" rotate(0 200 300) translate(200,300)" xlink:href="#hor"/>
		<use transform=" rotate(0 200 300) translate(200,300)" xlink:href="#vert"/>
		<use transform=" rotate(0 250 300) translate(250,300)" xlink:href="#hor"/>
		<use transform=" rotate(0 250 300) translate(250,300)" xlink:href="#vert"/>
		<use transform=" rotate(0 300 300) translate(300,300)" xlink:href="#hor"/>
		<use transform=" rotate(0 300 300) translate(300,300)" xlink:href="#vert"/>
		<use transform=" rotate(0 350 300) translate(350,300)" xlink:href="#hor"/>
		<use transform=" rotate(0 350 300) translate(350,300)" xlink:href="#vert"/>
		<use transform=" rotate(0 -50 350) translate(-50,350)" xlink:href="#hor"/>
		<use transform=" rotate(0 -50 350) translate(-50,350)" xlink:href="#vert"/>
		<use transform=" rotate(0 0 350) translate(0,350)" xlink:href="#hor"/>
		<use transform=" rotate(0 0 350) translate(0,350)" xlink:href="#vert"/>
		<use transform=" rotate(0 50 350) translate(50,350)" xlink:href="#hor"/>
		<use transform=" rotate(0 50 350) translate(50,350)" xlink:href="#vert"/>
		<use transform=" rotate(0 100 350) translate(100,350)" xlink:href="#hor"/>
		<use transform=" rotate(0 100 350) translate(100,350)" xlink:href="#vert"/>
		<use transform=" rotate(0 150 350) translate(150,350)" xlink:href="#hor"/>
		<use transform=" rotate(0 150 350) translate(150,350)" xlink:href="#vert"/>
		<use transform=" rotate(0 200 350) translate(200,350)" xlink:href="#hor"/>
		<use transform=" rotate(0 200 350) translate(200,350)" xlink:href="#vert"/>
		<use transform=" rotate(0 250 350) translate(250,350)" xlink:href="#hor"/>
		<use transform=" rotate(0 250 350) translate(250,350)" xlink:href="#vert"/>
		<use transform=" rotate(0 300 350) translate(300,350)" xlink:href="#hor"/>
		<use transform=" rotate(0 300 350) translate(300,350)" xlink:href="#vert"/>
		<use transform=" rotate(0 350 350) translate(350,350)" xlink:href="#hor"/>
		<use transform=" rotate(0 350 350) translate(350,350)" xlink:href="#vert"/>
		<use transform=" rotate(0 -50 400) translate(-50,400)" xlink:href="#hor"/>
		<use transform=" rotate(0 -50 400) translate(-50,400)" xlink:href="#vert"/>
		<use transform=" rotate(0 0 400) translate(0,400)" xlink:href="#hor"/>
		<use transform=" rotate(0 0 400) translate(0,400)" xlink:href="#vert"/>
		<use transform=" rotate(0 50 400) translate(50,400)" xlink:href="#hor"/>
		<use transform=" rotate(0 50 400) translate(50,400)" xlink:href="#vert"/>
		<use transform=" rotate(0 100 400) translate(100,400)" xlink:href="#hor"/>
		<use transform=" rotate(0 100 400) translate(100,400)" xlink:href="#vert"/>
		<use transform=" rotate(0 150 400) translate(150,400)" xlink:href="#hor"/>
		<use transform=" rotate(0 150 400) translate(150,400)" xlink:href="#vert"/>
		<use transform=" rotate(0 200 400) translate(200,400)" xlink:href="#hor"/>
		<use transform=" rotate(0 200 400) translate(200,400)" xlink:href="#vert"/>
		<use transform=" rotate(0 250 400) translate(250,400)" xlink:href="#hor"/>
		<use transform=" rotate(0 250 400) translate(250,400)" xlink:href="#vert"/>
		<use transform=" rotate(0 300 400) translate(300,400)" xlink:href="#hor"/>
		<use transform=" rotate(0 300 400) translate(300,400)" xlink:href="#vert"/>
		<use transform=" rotate(0 350 400) translate(350,400)" xlink:href="#hor"/>
		<use transform=" rotate(0 350 400) translate(350,400)" xlink:href="#vert"/>
		<use transform=" rotate(0 -50 450) translate(-50,450)" xlink:href="#hor"/>
		<use transform=" rotate(0 -50 450) translate(-50,450)" xlink:href="#vert"/>
		<use transform=" rotate(0 0 450) translate(0,450)" xlink:href="#hor"/>
		<use transform=" rotate(0 0 450) translate(0,450)" xlink:href="#vert"/>
		<use transform=" rotate(0 50 450) translate(50,450)" xlink:href="#hor"/>
		<use transform=" rotate(0 50 450) translate(50,450)" xlink:href="#vert"/>
		<use transform=" rotate(0 100 450) translate(100,450)" xlink:href="#hor"/>
		<use transform=" rotate(0 100 450) translate(100,450)" xlink:href="#vert"/>
		<use transform=" rotate(0 150 450) translate(150,450)" xlink:href="#hor"/>
		<use transform=" rotate(0 150 450) translate(150,450)" xlink:href="#vert"/>
		<use transform=" rotate(0 200 450) translate(200,450)" xlink:href="#hor"/>
		<use transform=" rotate(0 200 450) translate(200,450)" xlink:href="#vert"/>
		<use transform=" rotate(0 250 450) translate(250,450)" xlink:href="#hor"/>
		<use transform=" rotate(0 250 450) translate(250,450)" xlink:href="#vert"/>
		<use transform=" rotate(0 300 450) translate(300,450)" xlink:href="#hor"/>
		<use transform=" rotate(0 300 450) translate(300,450)" xlink:href="#vert"/>
		<use transform=" rotate(0 350 450) translate(350,450)" xlink:href="#hor"/>
		<use transform=" rotate(0 350 450) translate(350,450)" xlink:href="#vert"/>
		<use transform=" rotate(0 -50 500) translate(-50,500)" xlink:href="#hor"/>
		<use transform=" rotate(0 -50 500) translate(-50,500)" xlink:href="#vert"/>
		<use transform=" rotate(0 0 500) translate(0,500)" xlink:href="#hor"/>
		<use transform=" rotate(0 0 500) translate(0,500)" xlink:href="#vert"/>
		<use transform=" rotate(0 50 500) translate(50,500)" xlink:href="#hor"/>
		<use transform=" rotate(0 50 500) translate(50,500)" xlink:href="#vert"/>
		<use transform=" rotate(0 100 500) translate(100,500)" xlink:href="#hor"/>
		<use transform=" rotate(0 100 500) translate(100,500)" xlink:href="#vert"/>
		<use transform=" rotate(0 150 500) translate(150,500)" xlink:href="#hor"/>
		<use transform=" rotate(0 150 500) translate(150,500)" xlink:href="#vert"/>
		<use transform=" rotate(0 200 500) translate(200,500)" xlink:href="#hor"/>
		<use transform=" rotate(0 200 500) translate(200,500)" xlink:href="#vert"/>
		<use transform=" rotate(0 250 500) translate(250,500)" xlink:href="#hor"/>
		<use transform=" rotate(0 250 500) translate(250,500)" xlink:href="#vert"/>
		<use transform=" rotate(0 300 500) translate(300,500)" xlink:href="#hor"/>
		<use transform=" rotate(0 300 500) translate(300,500)" xlink:href="#vert"/>
		<use transform=" rotate(0 350 500) translate(350,500)" xlink:href="#hor"/>
		<use transform=" rotate(0 350 500) translate(350,500)" xlink:href="#vert"/>
		<use transform=" rotate(0 -50 550) translate(-50,550)" xlink:href="#hor"/>
		<use transform=" rotate(0 -50 550) translate(-50,550)" xlink:href="#vert"/>
		<use transform=" rotate(0 0 550) translate(0,550)" xlink:href="#hor"/>
		<use transform=" rotate(0 0 550) translate(0,550)" xlink:href="#vert"/>
		<use transform=" rotate(0 50 550) translate(50,550)" xlink:href="#hor"/>
		<use transform=" rotate(0 50 550) translate(50,550)" xlink:href="#vert"/>
		<use transform=" rotate(0 100 550) translate(100,550)" xlink:href="#hor"/>
		<use transform=" rotate(0 100 550) translate(100,550)" xlink:href="#vert"/>
		<use transform=" rotate(0 150 550) translate(150,550)" xlink:href="#hor"/>
		<use transform=" rotate(0 150 550) translate(150,550)" xlink:href="#vert"/>
		<use transform=" rotate(0 200 550) translate(200,550)" xlink:href="#hor"/>
		<use transform=" rotate(0 200 550) translate(200,550)" xlink:href="#vert"/>
		<use transform=" rotate(0 250 550) translate(250,550)" xlink:href="#hor"/>
		<use transform=" rotate(0 250 550) translate(250,550)" xlink:href="#vert"/>
		<use transform=" rotate(0 300 550) translate(300,550)" xlink:href="#hor"/>
		<use transform=" rotate(0 300 550) translate(300,550)" xlink:href="#vert"/>
		<use transform=" rotate(0 350 550) translate(350,550)" xlink:href="#hor"/>
		<use transform=" rotate(0 350 550) translate(350,550)" xlink:href="#vert"/>
	</g>
</svg>

